<svg width="126" height="136" viewBox="0 0 126 136" fill="none" xmlns="http://www.w3.org/2000/svg">
<path d="M104.418 78.0887L96.1023 135.98L44.2612 135.714L52.5505 77.8221L104.418 78.0887Z" fill="url(#paint0_linear_159_806)"/>
<path d="M52.5506 77.8223L44.2614 135.714L18.5674 118.815L26.8566 60.924L52.5506 77.8223Z" fill="url(#paint1_linear_159_806)"/>
<path fill-rule="evenodd" clip-rule="evenodd" d="M104.418 78.0886L52.5505 77.8221L26.8564 60.9237L78.6976 61.1902L104.418 78.0886ZM52.737 77.3156L102.739 77.5822L78.5643 61.67L28.5623 61.4301L52.737 77.3156Z" fill="url(#paint2_linear_159_806)"/>
<path style="mix-blend-mode:multiply" d="M71.5549 105.782C69.2627 121.907 66.2508 134.834 64.8382 134.621C63.4522 134.408 64.1719 121.188 66.4907 105.062C68.7829 88.9368 71.7948 76.0364 73.2074 76.2497C74.5934 76.4363 73.8738 89.6564 71.5549 105.782Z" fill="url(#paint3_radial_159_806)"/>
<path style="mix-blend-mode:multiply" d="M83.6288 107.008C81.3633 122.866 78.3781 135.553 76.9654 135.367C75.5794 135.154 76.2724 122.147 78.538 106.288C80.8035 90.429 83.7887 77.7419 85.1747 77.9552C86.5874 78.1417 85.8944 91.1753 83.6288 107.008Z" fill="url(#paint4_radial_159_806)"/>
<path style="mix-blend-mode:multiply" d="M32.8806 97.5188C30.5617 113.644 27.5765 126.544 26.1639 126.358C24.7779 126.145 25.4976 112.925 27.8164 96.7991C30.1086 80.6737 33.1205 67.7734 34.5064 67.96C35.9191 68.1732 35.1728 81.3934 32.8806 97.5188Z" fill="url(#paint5_radial_159_806)"/>
<path style="mix-blend-mode:multiply" d="M41.1696 99.9976C38.9041 115.856 35.9189 128.544 34.5329 128.33C33.1203 128.144 33.8399 115.137 36.1055 99.278C38.371 83.4191 41.3296 70.732 42.7422 70.9453C44.1282 71.1319 43.4352 84.1388 41.1696 99.9976Z" fill="url(#paint6_radial_159_806)"/>
<path d="M72.0878 77.929L85.841 78.0089L77.5784 135.874L63.8252 135.82L72.0878 77.929Z" fill="url(#paint7_linear_159_806)"/>
<path d="M33.5731 65.3481L43.5682 71.9049L35.279 129.796L25.3105 123.24L33.5731 65.3481Z" fill="url(#paint8_linear_159_806)"/>
<path d="M64.6781 22.3026L96.8222 30.0055L44.3681 48.6896L12.1973 41.0134L64.6781 22.3026Z" fill="url(#paint9_linear_159_806)"/>
<path d="M96.8223 30.0059L99.461 42.7996L47.0069 61.4837L44.3682 48.69L96.8223 30.0059Z" fill="url(#paint10_linear_159_806)"/>
<path d="M44.3681 48.6896L47.0068 61.4833L14.836 53.8071L12.1973 41.0134L44.3681 48.6896Z" fill="url(#paint11_linear_159_806)"/>
<path style="mix-blend-mode:multiply" d="M26.5905 54.0739C29.8422 69.7729 31.3881 82.6998 30.0021 82.993C28.6161 83.2862 24.8313 70.8124 21.5796 55.1401C18.3012 39.4678 16.782 26.5142 18.1679 26.221C19.5539 25.9278 23.3121 38.4017 26.5905 54.0739Z" fill="url(#paint12_radial_159_806)"/>
<path style="mix-blend-mode:multiply" d="M36.8522 53.088C40.1306 68.7603 41.6498 81.7139 40.2638 82.0071C38.8779 82.2736 35.093 69.7997 31.8413 54.1275C28.5629 38.4552 27.0437 25.5016 28.4297 25.235C29.8156 24.9419 33.6004 37.4157 36.8522 53.088Z" fill="url(#paint13_radial_159_806)"/>
<path style="mix-blend-mode:multiply" d="M68.4362 48.3167C71.7145 64.0157 73.2338 76.9426 71.8478 77.2358C70.4618 77.529 66.677 65.0552 63.4253 49.3829C60.1469 33.684 58.6277 20.757 60.0136 20.4638C61.3996 20.1706 65.1844 32.6445 68.4362 48.3167Z" fill="url(#paint14_radial_159_806)"/>
<path style="mix-blend-mode:multiply" d="M80.1368 45.4381C83.4152 61.1104 84.9345 74.064 83.5485 74.3572C82.1625 74.6237 78.3777 62.1498 75.126 46.4776C71.8476 30.8053 70.3284 17.8517 71.7143 17.5851C73.1003 17.292 76.8851 29.7658 80.1368 45.4381Z" fill="url(#paint15_radial_159_806)"/>
<path d="M21.313 43.1725L32.9339 45.9711L35.5993 58.7648L24.005 55.9928L21.313 43.1725Z" fill="url(#paint16_linear_159_806)"/>
<path d="M63.5854 41.8398L76.5391 37.2288L79.2044 50.0225L66.2508 54.6335L63.5854 41.8398Z" fill="url(#paint17_linear_159_806)"/>
<path d="M76.5388 37.229L63.5852 41.84L33.8398 33.3109L46.7402 28.6998L76.5388 37.229Z" fill="url(#paint18_linear_159_806)"/>
<path d="M83.6289 26.8339L32.9339 45.9711L25.1778 44.1053L21.313 43.1725L72.008 24.0619L83.6289 26.8339Z" fill="url(#paint19_linear_159_806)"/>
<path d="M82.1096 10.069C76.4324 5.69778 54.15 22.143 60.4935 36.1361L56.7354 32.8577C48.766 25.608 69.9022 0.420388 78.3514 6.79058L82.1096 10.069Z" fill="url(#paint20_linear_159_806)"/>
<path d="M56.7354 32.8576C62.0394 36.4558 80.6436 20.8368 80.1372 10.7351C80.0572 9.08261 79.4442 7.74993 78.3514 6.79041L82.1095 10.0688C90.4254 18.4113 69.3692 37.4686 61.8262 36.6424C61.3198 36.5891 60.7867 36.3758 60.4935 36.1359L56.7354 32.8576Z" fill="url(#paint21_linear_159_806)"/>
<path d="M69.6359 2.41912C62.7859 0.340143 47.6734 23.5287 58.4947 34.43L53.857 32.6709C43.8353 28.6728 54.8165 -2.32521 64.9715 0.686639L69.6359 2.41912Z" fill="url(#paint22_linear_159_806)"/>
<path d="M53.8569 32.6706C60.0672 34.1632 72.0346 13.027 68.01 3.75156C67.3436 2.23231 66.3308 1.19282 64.9714 0.686401L69.6358 2.41888C80.3505 7.34978 67.2903 32.564 59.9339 34.4298C59.4275 34.563 58.8678 34.563 58.4947 34.4298L53.8569 32.6706Z" fill="url(#paint23_linear_159_806)"/>
<path d="M20.7265 18.8373C25.924 9.61523 55.3761 24.2747 50.9516 34.1098L48.8193 38.5876C49.0326 23.2352 22.0592 17.0782 18.5942 23.3418L20.7265 18.8373Z" fill="url(#paint24_linear_159_806)"/>
<path d="M48.8193 38.5874C48.6593 38.9606 48.2595 39.3604 47.8064 39.6003C41.223 43.3584 14.3029 34.3229 18.5942 23.3416L20.7264 18.8372C20.1134 20.1432 20.0868 21.6091 20.6731 23.155C24.2181 32.6437 47.5132 39.5203 50.9515 34.1096L48.8193 38.5874Z" fill="url(#paint25_linear_159_806)"/>
<path d="M29.4686 8.09646C37.6245 1.35311 59.9335 25.5279 52.284 33.1508L48.7124 36.5891C54.3629 22.3028 31.3609 6.9237 25.897 11.5348L29.4686 8.09646Z" fill="url(#paint26_linear_159_806)"/>
<path d="M48.7125 36.5888C48.4194 36.8553 47.8863 37.0686 47.3799 37.1485C39.8902 38.3213 17.981 20.2769 25.8971 11.5345L29.4687 8.09619C28.4292 9.10903 27.8962 10.4684 27.8962 12.1209C27.8428 22.2492 47.1667 36.9886 52.2841 33.1505L48.7125 36.5888Z" fill="url(#paint27_linear_159_806)"/>
<path style="mix-blend-mode:multiply" d="M73.2871 35.1762C74.4598 40.8801 67.3966 47.1703 57.4815 49.2493C47.5664 51.3016 38.5575 48.3697 37.3847 42.6659C36.1853 36.962 43.2752 30.6718 53.1903 28.6195C63.1054 26.5405 72.0877 29.499 73.2871 35.1762Z" fill="url(#paint28_radial_159_806)"/>
<path d="M37.6247 22.4631C40.0502 19.5046 56.3621 31.392 54.1765 34.6171L50.7915 39.3615C47.753 33.5243 34.0531 27.394 34.4529 26.9143L37.6247 22.4631Z" fill="url(#paint29_linear_159_806)"/>
<path d="M50.7918 39.3612C50.7118 39.4678 50.5519 39.6011 50.3653 39.6544C47.7799 40.5873 32.2409 30.5389 34.4532 26.914L37.6249 22.4629C35.7858 25.0483 51.7513 34.8035 54.1768 34.6169L50.7918 39.3612Z" fill="url(#paint30_linear_159_806)"/>
<path d="M54.0169 34.2971C51.005 31.9782 62.3061 15.2665 65.6112 17.3455L70.4621 20.5705C64.7316 23.8223 59.081 37.7088 58.5746 37.309L54.0169 34.2971Z" fill="url(#paint31_linear_159_806)"/>
<path d="M70.4623 20.5704C70.5956 20.6504 70.7022 20.8103 70.7822 20.9702C71.795 23.529 62.2797 39.4145 58.5748 37.3088L54.0171 34.297C56.6824 36.0561 65.8779 19.7442 65.6114 17.3453L70.4623 20.5704Z" fill="url(#paint32_linear_159_806)"/>
<path style="mix-blend-mode:multiply" d="M60.0668 33.3906C61.133 38.5081 56.3887 43.8388 49.4587 45.3047C42.5288 46.744 36.0254 43.7588 34.9592 38.6147C33.8931 33.4972 38.6374 28.1665 45.5673 26.7006C52.5239 25.2613 59.0007 28.2465 60.0668 33.3906Z" fill="url(#paint33_radial_159_806)"/>
<path style="mix-blend-mode:multiply" d="M74.7264 29.3659C75.7925 34.51 71.0216 39.8407 64.0917 41.28C57.1617 42.7193 50.6849 39.7341 49.6188 34.59C48.526 29.4725 53.297 24.1418 60.2269 22.7025C67.1568 21.2632 73.6336 24.2484 74.7264 29.3659Z" fill="url(#paint34_radial_159_806)"/>
<path d="M44.6082 35.2295C45.2212 34.5365 62.1996 31.3114 62.8925 31.6046L66.3308 34.9363C58.4414 34.2433 42.6625 39.7872 42.9557 39.1742L44.6082 35.2295Z" fill="url(#paint35_linear_159_806)"/>
<path d="M66.331 34.9363C66.4376 35.0429 66.4909 35.2028 66.4909 35.3628C66.3843 37.7616 41.3566 43.9719 42.9558 39.1742L44.6083 35.2295C43.7554 37.2818 61.8798 32.6974 62.8927 31.6046L66.331 34.9363Z" fill="url(#paint36_linear_159_806)"/>
<path d="M75.4193 67.9339C75.6592 67.9872 76.059 67.9872 76.3522 68.0139C76.3789 68.5736 76.5121 69.1067 76.7253 69.5598C76.4766 69.4354 76.2545 69.2843 76.059 69.1067C75.7392 68.7868 75.526 68.3604 75.4193 67.9339ZM75.4193 66.8145C75.6859 66.7878 76.0324 66.7345 76.3522 66.7078C76.3256 67.1076 76.2989 67.5608 76.3522 68.0139C76.059 67.9872 75.6592 67.9872 75.4193 67.9339C75.3394 67.5608 75.3394 67.1876 75.4193 66.8145ZM76.059 65.6684C76.2545 65.4729 76.4766 65.313 76.7253 65.1886C76.5388 65.5617 76.4055 66.1215 76.3522 66.7078C76.0324 66.7345 75.6859 66.7878 75.4193 66.8145C75.526 66.3613 75.7658 65.9882 76.059 65.6684ZM76.3522 68.0139C77.0452 68.1205 77.7649 68.1471 78.4845 68.1205C78.4578 68.7069 78.4312 69.2666 78.3779 69.7463C77.8182 69.8796 77.2318 69.8263 76.7253 69.5598C76.5121 69.1067 76.3789 68.5736 76.3522 68.0139ZM76.3522 66.7078C77.0719 66.6545 77.7648 66.6279 78.4578 66.6545C78.4845 67.1076 78.4845 67.6141 78.4845 68.1205C77.7649 68.1471 77.0452 68.1205 76.3522 68.0139C76.2989 67.5608 76.3256 67.1076 76.3522 66.7078ZM76.7253 65.1886C77.2318 64.9487 77.8182 64.8954 78.3779 65.0287C78.4312 65.4551 78.4312 66.0682 78.4578 66.6545C77.7648 66.6279 77.0719 66.6545 76.3522 66.7078C76.4055 66.1215 76.5388 65.5617 76.7253 65.1886ZM78.4845 68.1205C78.9909 68.0672 79.6839 68.0139 80.1637 67.9339C80.057 68.3604 79.8172 68.7868 79.4973 69.1067C79.2041 69.3998 78.8043 69.6397 78.3779 69.7463C78.4312 69.2666 78.4578 68.7069 78.4845 68.1205ZM78.4578 66.6545C79.0264 66.6901 79.595 66.7434 80.1637 66.8145C80.2436 67.1876 80.2436 67.5608 80.1637 67.9339C79.6839 68.0139 78.9909 68.0672 78.4845 68.1205C78.4845 67.6141 78.4845 67.1076 78.4578 66.6545ZM78.3779 65.0287C78.8043 65.1353 79.2041 65.3485 79.4973 65.6684C79.8172 65.9882 80.057 66.3613 80.1637 66.8145C79.595 66.7434 79.0264 66.6901 78.4578 66.6545C78.4312 66.0682 78.4312 65.4551 78.3779 65.0287Z" fill="url(#paint37_linear_159_806)"/>
<path d="M120.357 77.7956C120.597 77.849 120.97 77.849 121.264 77.8756C121.317 78.4087 121.423 78.9684 121.663 79.4215C121.415 79.2971 121.192 79.1372 120.997 78.9418C120.677 78.6219 120.437 78.2221 120.357 77.7956ZM120.357 76.6762C120.624 76.6229 120.944 76.5696 121.29 76.5429C121.237 76.9694 121.237 77.4225 121.264 77.8756C120.97 77.849 120.597 77.849 120.357 77.7956C120.251 77.4225 120.251 77.0494 120.357 76.6762ZM120.997 75.5035C121.192 75.3258 121.415 75.1747 121.663 75.0503C121.477 75.4235 121.343 75.9832 121.29 76.5429C120.944 76.5696 120.624 76.6229 120.357 76.6762C120.464 76.2231 120.677 75.8233 120.997 75.5035ZM121.264 77.8756C121.983 77.9556 122.703 78.0089 123.396 77.9556C123.396 78.542 123.342 79.1283 123.316 79.5814C122.756 79.7147 122.17 79.6614 121.663 79.4215C121.423 78.9684 121.317 78.4087 121.264 77.8756ZM121.29 76.5429C121.983 76.4896 122.703 76.4896 123.396 76.5163C123.422 76.9694 123.422 77.4758 123.396 77.9556C122.703 78.0089 121.983 77.9556 121.264 77.8756C121.237 77.4225 121.237 76.9694 121.29 76.5429ZM121.663 75.0503C122.17 74.8105 122.756 74.7305 123.316 74.8638C123.342 75.3169 123.369 75.9299 123.396 76.5163C122.703 76.4896 121.983 76.4896 121.29 76.5429C121.343 75.9832 121.477 75.4235 121.663 75.0503ZM123.396 77.9556C123.902 77.9289 124.622 77.8756 125.075 77.7956C124.968 78.2221 124.755 78.6219 124.435 78.9418C124.115 79.2616 123.742 79.4748 123.316 79.5814C123.342 79.1283 123.396 78.542 123.396 77.9556ZM123.396 76.5163C123.947 76.5341 124.506 76.5874 125.075 76.6762C125.155 77.0494 125.155 77.4225 125.075 77.7956C124.622 77.8756 123.902 77.9289 123.396 77.9556C123.422 77.4758 123.422 76.9694 123.396 76.5163ZM123.316 74.8638C123.742 74.997 124.115 75.2103 124.435 75.5035C124.728 75.8233 124.968 76.2231 125.075 76.6762C124.506 76.5874 123.947 76.5341 123.396 76.5163C123.369 75.9299 123.342 75.3169 123.316 74.8638Z" fill="url(#paint38_linear_159_806)"/>
<path d="M0.442783 84.3522C0.682665 84.4055 1.08247 84.4055 1.37566 84.4322C1.40231 84.9919 1.53558 85.525 1.74881 85.9781C1.50005 85.8537 1.27793 85.7027 1.08247 85.525C0.762632 85.2051 0.549397 84.7787 0.442783 84.3522ZM0.442783 83.2328C0.709318 83.2061 1.05581 83.1528 1.37566 83.1262C1.349 83.526 1.32235 83.9791 1.37566 84.4322C1.08247 84.4055 0.682665 84.4055 0.442783 84.3522C0.362822 83.9791 0.362822 83.6059 0.442783 83.2328ZM1.08247 82.0867C1.27793 81.8912 1.50005 81.7313 1.74881 81.6069C1.56224 81.9801 1.42896 82.5398 1.37566 83.1262C1.05581 83.1528 0.709318 83.2061 0.442783 83.2328C0.549397 82.7797 0.789285 82.4065 1.08247 82.0867ZM1.37566 84.4322C2.06865 84.5122 2.78829 84.5655 3.50794 84.5122C3.48129 85.1252 3.45463 85.6849 3.40132 86.1647C2.84159 86.2979 2.25523 86.2446 1.74881 85.9781C1.53558 85.525 1.40231 84.9919 1.37566 84.4322ZM1.37566 83.1262C2.0953 83.0729 2.7883 83.0462 3.48129 83.0729C3.50795 83.526 3.50794 84.0324 3.50794 84.5122C2.78829 84.5655 2.06865 84.5122 1.37566 84.4322C1.32235 83.9791 1.349 83.526 1.37566 83.1262ZM1.74881 81.6069C2.25523 81.3671 2.84159 81.3137 3.40132 81.447C3.45463 81.8735 3.45464 82.4865 3.48129 83.0729C2.7883 83.0462 2.0953 83.0729 1.37566 83.1262C1.42896 82.5398 1.56224 81.9801 1.74881 81.6069ZM3.50794 84.5122C4.01436 84.4855 4.70735 84.4322 5.16046 84.3522C5.0805 84.7787 4.84061 85.2051 4.52077 85.525C4.22758 85.8182 3.82777 86.0581 3.40132 86.1647C3.45463 85.6849 3.48129 85.1252 3.50794 84.5122ZM3.48129 83.0729C4.0499 83.1084 4.60962 83.1617 5.16046 83.2328C5.26708 83.6059 5.26708 83.9791 5.16046 84.3522C4.70735 84.4322 4.01436 84.4855 3.50794 84.5122C3.50794 84.0324 3.50795 83.526 3.48129 83.0729ZM3.40132 81.447C3.82777 81.5536 4.22758 81.7668 4.52077 82.0867C4.84061 82.4065 5.05385 82.7797 5.16046 83.2328C4.60962 83.1617 4.0499 83.1084 3.48129 83.0729C3.45464 82.4865 3.45463 81.8735 3.40132 81.447Z" fill="url(#paint39_linear_159_806)"/>
<path d="M105.618 29.0729C105.831 29.1262 106.231 29.1263 106.524 29.1529C106.577 29.7126 106.684 30.2457 106.897 30.6988C106.666 30.5922 106.453 30.4412 106.257 30.2457C105.937 29.9259 105.698 29.4994 105.618 29.0729ZM105.618 27.9535C105.884 27.9268 106.204 27.8735 106.55 27.8469C106.497 28.2467 106.497 28.6998 106.524 29.1529C106.231 29.1263 105.831 29.1262 105.618 29.0729C105.511 28.6998 105.511 28.3266 105.618 27.9535ZM106.257 26.8074C106.453 26.6119 106.666 26.452 106.897 26.3276C106.71 26.7274 106.604 27.2605 106.55 27.8469C106.204 27.8735 105.884 27.9268 105.618 27.9535C105.724 27.527 105.937 27.1272 106.257 26.8074ZM106.524 29.1529C107.243 29.2595 107.963 29.2862 108.656 29.2595C108.656 29.8459 108.603 30.4056 108.549 30.8854C108.016 31.0187 107.43 30.9653 106.897 30.6988C106.684 30.2457 106.577 29.7126 106.524 29.1529ZM106.55 27.8469C107.243 27.7936 107.963 27.7669 108.656 27.7936C108.656 28.2467 108.683 28.7531 108.656 29.2595C107.963 29.2862 107.243 29.2595 106.524 29.1529C106.497 28.6998 106.497 28.2467 106.55 27.8469ZM106.897 26.3276C107.43 26.0877 108.016 26.0344 108.549 26.1677C108.603 26.5942 108.629 27.2072 108.656 27.7936C107.963 27.7669 107.243 27.7936 106.55 27.8469C106.604 27.2605 106.71 26.7274 106.897 26.3276ZM108.656 29.2595C109.162 29.2062 109.882 29.1529 110.335 29.0729C110.229 29.4994 110.015 29.9259 109.696 30.2457C109.376 30.5389 109.003 30.7788 108.549 30.8854C108.603 30.4056 108.656 29.8459 108.656 29.2595ZM108.656 27.7936C109.207 27.8291 109.767 27.8824 110.335 27.9535C110.415 28.3266 110.415 28.6998 110.335 29.0729C109.882 29.1529 109.162 29.2062 108.656 29.2595C108.683 28.7531 108.656 28.2467 108.656 27.7936ZM108.549 26.1677C109.003 26.2743 109.376 26.4875 109.696 26.8074C109.989 27.1272 110.229 27.527 110.335 27.9535C109.767 27.8824 109.207 27.8291 108.656 27.7936C108.629 27.2072 108.603 26.5942 108.549 26.1677Z" fill="url(#paint40_linear_159_806)"/>
<path d="M4.22745 38.4551C4.46733 38.5084 4.86713 38.5084 5.13366 38.5351C5.18697 39.0948 5.29358 39.6279 5.53346 40.081C5.2847 39.9566 5.06258 39.8056 4.86713 39.6279C4.54728 39.2814 4.33407 38.8816 4.22745 38.4551ZM4.22745 37.3357C4.49399 37.309 4.84048 37.2291 5.16032 37.2291C5.13367 37.6289 5.10701 38.082 5.13366 38.5351C4.86713 38.5084 4.46733 38.5084 4.22745 38.4551C4.14749 38.082 4.14749 37.7088 4.22745 37.3357ZM4.86713 36.1896C5.06258 35.9941 5.2847 35.8342 5.53346 35.7098C5.34689 36.083 5.21363 36.6427 5.16032 37.2291C4.84048 37.2291 4.49399 37.309 4.22745 37.3357C4.33407 36.8826 4.57394 36.4828 4.86713 36.1896ZM5.13366 38.5351C5.85331 38.6151 6.57296 38.6684 7.29261 38.6151C7.26595 39.2281 7.23929 39.7878 7.18599 40.2676C6.62626 40.4008 6.03988 40.3209 5.53346 40.081C5.29358 39.6279 5.18697 39.0948 5.13366 38.5351ZM5.16032 37.2291C5.87997 37.1758 6.57295 37.1491 7.26594 37.1758C7.2926 37.6289 7.29261 38.1353 7.29261 38.6151C6.57296 38.6684 5.85331 38.6151 5.13366 38.5351C5.10701 38.082 5.13367 37.6289 5.16032 37.2291ZM5.53346 35.7098C6.03988 35.4699 6.62626 35.4166 7.18599 35.5499C7.23929 35.9764 7.23929 36.5894 7.26594 37.1758C6.57295 37.1491 5.87997 37.1758 5.16032 37.2291C5.21363 36.6427 5.34689 36.083 5.53346 35.7098ZM7.29261 38.6151C7.79902 38.5884 8.49202 38.5351 8.94513 38.4551C8.86517 38.8816 8.62528 39.2814 8.30544 39.6279C8.01225 39.9211 7.61244 40.1343 7.18599 40.2676C7.23929 39.7878 7.26595 39.2281 7.29261 38.6151ZM7.26594 37.1758C7.83455 37.2113 8.39429 37.2646 8.94513 37.3357C9.05174 37.7088 9.05174 38.082 8.94513 38.4551C8.49202 38.5351 7.79902 38.5884 7.29261 38.6151C7.29261 38.1353 7.2926 37.6289 7.26594 37.1758ZM7.18599 35.5499C7.61244 35.6565 8.01225 35.8697 8.30544 36.1896C8.62528 36.4828 8.83851 36.8826 8.94513 37.3357C8.39429 37.2646 7.83455 37.2113 7.26594 37.1758C7.23929 36.5894 7.23929 35.9764 7.18599 35.5499Z" fill="url(#paint41_linear_159_806)"/>
<defs>
<linearGradient id="paint0_linear_159_806" x1="73.74" y1="35.4164" x2="114.307" y2="89.5497" gradientUnits="userSpaceOnUse">
<stop stop-color="#9BC8EB"/>
<stop offset="1" stop-color="#CFCBFF"/>
</linearGradient>
<linearGradient id="paint1_linear_159_806" x1="-57.2086" y1="122.627" x2="35.7589" y2="52.9012" gradientUnits="userSpaceOnUse">
<stop stop-color="#CFCBFF"/>
<stop offset="1" stop-color="#9BC8EB"/>
</linearGradient>
<linearGradient id="paint2_linear_159_806" x1="65.6373" y1="78.0886" x2="65.6373" y2="60.9237" gradientUnits="userSpaceOnUse">
<stop stop-color="#9882BB"/>
<stop offset="1" stop-color="#9BC8EB"/>
</linearGradient>
<radialGradient id="paint3_radial_159_806" cx="0" cy="0" r="1" gradientUnits="userSpaceOnUse" gradientTransform="translate(69.0228 105.435) scale(2.2389 2.2389)">
<stop stop-color="#582D88"/>
<stop offset="1" stop-color="#FEFEFE"/>
</radialGradient>
<radialGradient id="paint4_radial_159_806" cx="0" cy="0" r="1" gradientUnits="userSpaceOnUse" gradientTransform="translate(81.0701 106.661) scale(2.2389 2.2389)">
<stop stop-color="#582D88"/>
<stop offset="1" stop-color="#FEFEFE"/>
</radialGradient>
<radialGradient id="paint5_radial_159_806" cx="0" cy="0" r="1" gradientUnits="userSpaceOnUse" gradientTransform="translate(30.3485 97.1456) scale(2.2389)">
<stop stop-color="#582D88"/>
<stop offset="1" stop-color="#FEFEFE"/>
</radialGradient>
<radialGradient id="paint6_radial_159_806" cx="0" cy="0" r="1" gradientUnits="userSpaceOnUse" gradientTransform="translate(38.6376 99.6245) scale(2.2389)">
<stop stop-color="#582D88"/>
<stop offset="1" stop-color="#FEFEFE"/>
</radialGradient>
<linearGradient id="paint7_linear_159_806" x1="17.4214" y1="117.589" x2="65.7443" y2="81.3406" gradientUnits="userSpaceOnUse">
<stop stop-color="#9BC8EB"/>
<stop offset="1" stop-color="#4E489E"/>
</linearGradient>
<linearGradient id="paint8_linear_159_806" x1="-22.5592" y1="106.101" x2="24.2977" y2="70.972" gradientUnits="userSpaceOnUse">
<stop stop-color="#9BC8EB"/>
<stop offset="1" stop-color="#4E489E"/>
</linearGradient>
<linearGradient id="paint9_linear_159_806" x1="-25.5441" y1="96.666" x2="59.6672" y2="-33.35" gradientUnits="userSpaceOnUse">
<stop stop-color="#9BC8EB"/>
<stop offset="1" stop-color="#E8DAFF"/>
</linearGradient>
<linearGradient id="paint10_linear_159_806" x1="58.7877" y1="3.80544" x2="92.1846" y2="25.688" gradientUnits="userSpaceOnUse">
<stop stop-color="#9BC8EB"/>
<stop offset="1" stop-color="#EFE6FF"/>
</linearGradient>
<linearGradient id="paint11_linear_159_806" x1="-7.39308" y1="68.9463" x2="17.7678" y2="30.5652" gradientUnits="userSpaceOnUse">
<stop stop-color="#9882BB"/>
<stop offset="1" stop-color="#9BC8EB"/>
</linearGradient>
<radialGradient id="paint12_radial_159_806" cx="0" cy="0" r="1" gradientUnits="userSpaceOnUse" gradientTransform="translate(24.085 54.607) scale(2.26555 2.26555)">
<stop stop-color="#582D88"/>
<stop offset="1" stop-color="#FEFEFE"/>
</radialGradient>
<radialGradient id="paint13_radial_159_806" cx="0" cy="0" r="1" gradientUnits="userSpaceOnUse" gradientTransform="translate(34.3467 53.6211) scale(2.26555)">
<stop stop-color="#582D88"/>
<stop offset="1" stop-color="#FEFEFE"/>
</radialGradient>
<radialGradient id="paint14_radial_159_806" cx="0" cy="0" r="1" gradientUnits="userSpaceOnUse" gradientTransform="translate(65.9307 48.8498) scale(2.26555)">
<stop stop-color="#582D88"/>
<stop offset="1" stop-color="#FEFEFE"/>
</radialGradient>
<radialGradient id="paint15_radial_159_806" cx="0" cy="0" r="1" gradientUnits="userSpaceOnUse" gradientTransform="translate(77.6314 45.9711) scale(2.26555 2.26555)">
<stop stop-color="#582D88"/>
<stop offset="1" stop-color="#FEFEFE"/>
</radialGradient>
<linearGradient id="paint16_linear_159_806" x1="-5.58044" y1="82.3265" x2="26.5104" y2="33.3373" gradientUnits="userSpaceOnUse">
<stop stop-color="#9BC8EB"/>
<stop offset="1" stop-color="#4E489E"/>
</linearGradient>
<linearGradient id="paint17_linear_159_806" x1="34.0267" y1="85.0186" x2="67.1304" y2="34.4835" gradientUnits="userSpaceOnUse">
<stop stop-color="#9BC8EB"/>
<stop offset="1" stop-color="#4E489E"/>
</linearGradient>
<linearGradient id="paint18_linear_159_806" x1="29.5486" y1="5.16475" x2="62.3058" y2="26.6208" gradientUnits="userSpaceOnUse">
<stop stop-color="#9BC8EB"/>
<stop offset="1" stop-color="#4E489E"/>
</linearGradient>
<linearGradient id="paint19_linear_159_806" x1="102.446" y1="20.0372" x2="29.6022" y2="50.8487" gradientUnits="userSpaceOnUse">
<stop stop-color="#9BC8EB"/>
<stop offset="1" stop-color="#4E489E"/>
</linearGradient>
<linearGradient id="paint20_linear_159_806" x1="55.2428" y1="24.915" x2="71.5281" y2="4.63163" gradientUnits="userSpaceOnUse">
<stop stop-color="#433896"/>
<stop offset="0.5" stop-color="#5F5BA8"/>
<stop offset="1" stop-color="#433896"/>
</linearGradient>
<linearGradient id="paint21_linear_159_806" x1="88.8529" y1="14.2001" x2="68.916" y2="44.6384" gradientUnits="userSpaceOnUse">
<stop offset="0.1" stop-color="#5E5EA9"/>
<stop offset="0.3" stop-color="#4E489E"/>
<stop offset="0.5" stop-color="#5E5EA9"/>
<stop offset="0.8" stop-color="#4E489E"/>
<stop offset="1" stop-color="#5E5EA9"/>
</linearGradient>
<linearGradient id="paint22_linear_159_806" x1="48.9794" y1="26.5406" x2="57.8284" y2="-0.299538" gradientUnits="userSpaceOnUse">
<stop stop-color="#2F2772"/>
<stop offset="0.5" stop-color="#5F5BA8"/>
<stop offset="1" stop-color="#362C82"/>
</linearGradient>
<linearGradient id="paint23_linear_159_806" x1="76.4058" y1="2.20565" x2="68.1699" y2="38.6144" gradientUnits="userSpaceOnUse">
<stop offset="0.1" stop-color="#5E5EA9"/>
<stop offset="0.3" stop-color="#4E489E"/>
<stop offset="0.5" stop-color="#5E5EA9"/>
<stop offset="0.8" stop-color="#4E489E"/>
<stop offset="1" stop-color="#5E5EA9"/>
</linearGradient>
<linearGradient id="paint24_linear_159_806" x1="49.8055" y1="26.4869" x2="25.6574" y2="13.7998" gradientUnits="userSpaceOnUse">
<stop stop-color="#2F2772"/>
<stop offset="0.5" stop-color="#5F5BA8"/>
<stop offset="1" stop-color="#362C82"/>
</linearGradient>
<linearGradient id="paint25_linear_159_806" x1="13.4767" y1="30.4581" x2="41.4629" y2="48.8224" gradientUnits="userSpaceOnUse">
<stop offset="0.1" stop-color="#5E5EA9"/>
<stop offset="0.3" stop-color="#4E489E"/>
<stop offset="0.5" stop-color="#5E5EA9"/>
<stop offset="0.8" stop-color="#4E489E"/>
<stop offset="1" stop-color="#5E5EA9"/>
</linearGradient>
<linearGradient id="paint26_linear_159_806" x1="53.3235" y1="25.0481" x2="36.2918" y2="5.75095" gradientUnits="userSpaceOnUse">
<stop stop-color="#433896"/>
<stop offset="0.5" stop-color="#5F5BA8"/>
<stop offset="1" stop-color="#433896"/>
</linearGradient>
<linearGradient id="paint27_linear_159_806" x1="19.2604" y1="16.1456" x2="40.3433" y2="45.2779" gradientUnits="userSpaceOnUse">
<stop offset="0.1" stop-color="#5E5EA9"/>
<stop offset="0.3" stop-color="#4E489E"/>
<stop offset="0.5" stop-color="#5E5EA9"/>
<stop offset="0.8" stop-color="#4E489E"/>
<stop offset="1" stop-color="#5E5EA9"/>
</linearGradient>
<radialGradient id="paint28_radial_159_806" cx="0" cy="0" r="1" gradientUnits="userSpaceOnUse" gradientTransform="translate(55.3226 38.9344) scale(17.3248 17.3248)">
<stop stop-color="#582D88"/>
<stop offset="1" stop-color="#FEFEFE"/>
</radialGradient>
<linearGradient id="paint29_linear_159_806" x1="53.83" y1="30.8856" x2="40.6632" y2="20.6773" gradientUnits="userSpaceOnUse">
<stop stop-color="#2A2369"/>
<stop offset="0.5" stop-color="#5F5BA8"/>
<stop offset="1" stop-color="#312978"/>
</linearGradient>
<linearGradient id="paint30_linear_159_806" x1="39.544" y1="21.8232" x2="58.1481" y2="35.15" gradientUnits="userSpaceOnUse">
<stop offset="0.1" stop-color="#5E5EA9"/>
<stop offset="0.3" stop-color="#4E489E"/>
<stop offset="0.5" stop-color="#5E5EA9"/>
<stop offset="0.8" stop-color="#4E489E"/>
<stop offset="1" stop-color="#5E5EA9"/>
</linearGradient>
<linearGradient id="paint31_linear_159_806" x1="61.933" y1="17.7719" x2="52.1245" y2="31.3652" gradientUnits="userSpaceOnUse">
<stop stop-color="#433896"/>
<stop offset="0.5" stop-color="#5F5BA8"/>
<stop offset="1" stop-color="#150D3D"/>
</linearGradient>
<linearGradient id="paint32_linear_159_806" x1="53.2974" y1="32.4579" x2="66.0645" y2="13.3207" gradientUnits="userSpaceOnUse">
<stop offset="0.1" stop-color="#5E5EA9"/>
<stop offset="0.3" stop-color="#4E489E"/>
<stop offset="0.5" stop-color="#5E5EA9"/>
<stop offset="0.8" stop-color="#4E489E"/>
<stop offset="1" stop-color="#5E5EA9"/>
</linearGradient>
<radialGradient id="paint33_radial_159_806" cx="0" cy="0" r="1" gradientUnits="userSpaceOnUse" gradientTransform="translate(47.513 36.0026) scale(11.9674 11.9674)">
<stop stop-color="#582D88"/>
<stop offset="1" stop-color="#FEFEFE"/>
</radialGradient>
<radialGradient id="paint34_radial_159_806" cx="0" cy="0" r="1" gradientUnits="userSpaceOnUse" gradientTransform="translate(62.1726 31.9779) scale(11.9674 11.9674)">
<stop stop-color="#582D88"/>
<stop offset="1" stop-color="#FEFEFE"/>
</radialGradient>
<linearGradient id="paint35_linear_159_806" x1="63.1324" y1="30.3252" x2="42.3427" y2="33.7102" gradientUnits="userSpaceOnUse">
<stop stop-color="#433896"/>
<stop offset="0.5" stop-color="#5F5BA8"/>
<stop offset="1" stop-color="#433896"/>
</linearGradient>
<linearGradient id="paint36_linear_159_806" x1="43.1157" y1="34.5099" x2="70.1957" y2="29.0192" gradientUnits="userSpaceOnUse">
<stop offset="0.1" stop-color="#5E5EA9"/>
<stop offset="0.3" stop-color="#4E489E"/>
<stop offset="0.5" stop-color="#5E5EA9"/>
<stop offset="0.8" stop-color="#4E489E"/>
<stop offset="1" stop-color="#5E5EA9"/>
</linearGradient>
<linearGradient id="paint37_linear_159_806" x1="76.3789" y1="66.7078" x2="78.4845" y2="68.0938" gradientUnits="userSpaceOnUse">
<stop stop-color="#D4FFFF"/>
<stop offset="1" stop-color="#477EFF"/>
</linearGradient>
<linearGradient id="paint38_linear_159_806" x1="121.29" y1="76.5429" x2="123.396" y2="77.9556" gradientUnits="userSpaceOnUse">
<stop stop-color="#D4FFFF"/>
<stop offset="1" stop-color="#477EFF"/>
</linearGradient>
<linearGradient id="paint39_linear_159_806" x1="1.40231" y1="83.1262" x2="3.50794" y2="84.5122" gradientUnits="userSpaceOnUse">
<stop stop-color="#D4FFFF"/>
<stop offset="1" stop-color="#477EFF"/>
</linearGradient>
<linearGradient id="paint40_linear_159_806" x1="106.55" y1="27.8469" x2="108.656" y2="29.2329" gradientUnits="userSpaceOnUse">
<stop stop-color="#D4FFFF"/>
<stop offset="1" stop-color="#477EFF"/>
</linearGradient>
<linearGradient id="paint41_linear_159_806" x1="5.18698" y1="37.2291" x2="7.29261" y2="38.6151" gradientUnits="userSpaceOnUse">
<stop stop-color="#D4FFFF"/>
<stop offset="1" stop-color="#477EFF"/>
</linearGradient>
</defs>
</svg>
