<svg width="19" height="20" viewBox="0 0 19 20" fill="none" xmlns="http://www.w3.org/2000/svg">
<path d="M4.26197 11.9956L3.61115 14.427L1.23093 14.4782C0.514309 13.1583 0.112122 11.6482 0.112122 10.0432C0.112122 8.48924 0.488715 7.02675 1.15781 5.73975L3.27843 6.12731L4.20712 8.23331C4.01334 8.80003 3.90731 9.40696 3.90731 10.0432C3.90731 10.7305 4.03162 11.3886 4.26197 11.9956Z" fill="#FBBB00"/>
<path d="M18.6676 8.29541C18.7736 8.86213 18.8321 9.44713 18.8321 10.0431C18.8321 10.7122 18.7627 11.3667 18.6274 11.9992C18.1703 14.1454 16.9821 16.0174 15.3331 17.3446L12.664 17.2094L12.2874 14.8511C13.3807 14.2076 14.2362 13.2058 14.6859 12.0028H9.67688V8.29541H14.7554H18.6676Z" fill="#518EF8"/>
<path d="M15.3331 17.3408C13.728 18.6315 11.6915 19.4029 9.47211 19.4029C5.90726 19.4029 2.80676 17.4103 1.22726 14.478L4.26195 11.9954C5.0517 14.105 7.08823 15.6077 9.47211 15.6077C10.4959 15.6077 11.4575 15.3299 12.2838 14.8472L15.3331 17.3408Z" fill="#28B446"/>
<path d="M15.4464 2.83664L12.4154 5.31923C11.5635 4.78542 10.5544 4.47829 9.47212 4.47829C7.0334 4.47829 4.96031 6.05048 4.20712 8.23326L1.15781 5.73604C2.71537 2.73426 5.85609 0.683105 9.47212 0.683105C11.7426 0.683105 13.8267 1.49114 15.4464 2.83664Z" fill="#F14336"/>
</svg>
