<svg width="19" height="19" viewBox="0 0 19 19" fill="none" xmlns="http://www.w3.org/2000/svg">
<path d="M1.87557 1.53405C0.482415 2.98112 0.767545 4.51832 0.767545 9.18825C0.767545 13.0663 0.0909142 16.954 3.63215 17.8692C4.73795 18.1536 14.5358 18.1536 15.6401 17.8677C17.1145 17.4873 18.3141 16.2914 18.4781 14.2061C18.501 13.9151 18.501 4.46661 18.4774 4.16966C18.3031 1.94845 16.9358 0.668318 15.1341 0.409041C14.7212 0.349208 14.6385 0.33148 12.5199 0.327786C5.00535 0.33148 3.3581 -0.0031423 1.87557 1.53405Z" fill="url(#paint0_linear_159_969)"/>
<path d="M9.62994 2.64645C6.9478 2.64645 4.40083 2.40786 3.42799 4.9046C3.02614 5.9358 3.0845 7.27502 3.0845 9.19264C3.0845 10.8753 3.03058 12.4569 3.42799 13.4799C4.39861 15.9782 6.96626 15.7388 9.62847 15.7388C12.1969 15.7388 14.845 16.0062 15.8297 13.4799C16.2323 12.4384 16.1732 11.1191 16.1732 9.19264C16.1732 6.63533 16.3143 4.98438 15.074 3.74487C13.8183 2.48912 12.12 2.64645 9.62699 2.64645H9.62994ZM9.04343 3.82613C14.6382 3.81726 15.3503 3.19529 14.9573 11.8356C14.8177 14.8916 12.4908 14.5562 9.63068 14.5562C4.4156 14.5562 4.26565 14.407 4.26565 9.18968C4.26565 3.91181 4.67931 3.82908 9.04343 3.82465V3.82613ZM13.1239 4.91272C12.6903 4.91272 12.3387 5.26434 12.3387 5.69794C12.3387 6.13155 12.6903 6.48316 13.1239 6.48316C13.5575 6.48316 13.9091 6.13155 13.9091 5.69794C13.9091 5.26434 13.5575 4.91272 13.1239 4.91272ZM9.62994 5.8309C7.77364 5.8309 6.26895 7.33633 6.26895 9.19264C6.26895 11.0489 7.77364 12.5536 9.62994 12.5536C11.4862 12.5536 12.9902 11.0489 12.9902 9.19264C12.9902 7.33633 11.4862 5.8309 9.62994 5.8309ZM9.62994 7.01058C12.5145 7.01058 12.5182 11.3747 9.62994 11.3747C6.74614 11.3747 6.7417 7.01058 9.62994 7.01058Z" fill="white"/>
<defs>
<linearGradient id="paint0_linear_159_969" x1="1.90956" y1="16.9238" x2="18.3862" y2="2.66347" gradientUnits="userSpaceOnUse">
<stop stop-color="#FFDD55"/>
<stop offset="0.5" stop-color="#FF543E"/>
<stop offset="1" stop-color="#C837AB"/>
</linearGradient>
</defs>
</svg>
