<svg width="19" height="19" viewBox="0 0 19 19" fill="none" xmlns="http://www.w3.org/2000/svg">
<path d="M0.216309 9.2186C0.216309 14.2511 4.29571 18.3302 9.32769 18.3302C14.3599 18.3302 18.4393 14.2511 18.4393 9.2186C18.4393 4.18677 14.3599 0.107441 9.32769 0.107441C4.29571 0.107441 0.216309 4.18677 0.216309 9.2186Z" fill="#25B7D3"/>
<path d="M14.7041 12.773L12.8819 14.5953C12.4879 14.9893 11.8491 14.9892 11.4552 14.5953L8.64069 11.7808C8.24675 11.3868 8.24671 10.748 8.64066 10.354L10.4629 8.53177C10.8569 8.13779 11.4957 8.13782 11.8896 8.53184L14.7041 11.3463C15.0981 11.7402 15.0981 12.379 14.7041 12.773ZM11.6971 9.68367C11.4661 9.45273 11.0917 9.45269 10.8607 9.68364L9.79253 10.7518C9.56158 10.9828 9.56161 11.3572 9.79256 11.5882L11.6477 13.4434C11.8786 13.6743 12.2531 13.6743 12.4841 13.4434L13.5523 12.3752C13.7832 12.1442 13.7832 11.7698 13.5523 11.5389L11.6971 9.68367Z" fill="white"/>
<path d="M10.0152 8.08347L8.19295 9.9057C7.79896 10.2997 7.16019 10.2996 6.76624 9.9057L3.95172 7.09114C3.55778 6.6972 3.55774 6.05842 3.95172 5.66448L5.77399 3.84221C6.16794 3.44822 6.80675 3.4483 7.20066 3.84221L10.0152 6.6568C10.4091 7.05071 10.4092 7.68948 10.0152 8.08347ZM7.0081 4.99411C6.77715 4.76317 6.40274 4.76309 6.17176 4.99408L5.10356 6.06228C4.87257 6.29322 4.87261 6.66767 5.10356 6.89862L6.95877 8.75383C7.18968 8.98474 7.56412 8.98478 7.79511 8.75383L8.86331 7.68563C9.09426 7.45464 9.09422 7.0802 8.86331 6.84929L7.0081 4.99411Z" fill="white"/>
<path d="M11.4886 11.2903L11.3997 11.3792C11.1153 11.6636 10.6526 11.6636 10.3683 11.3792L7.16736 8.17834C6.88301 7.89399 6.88301 7.43129 7.16736 7.14694L7.25625 7.05802C7.5406 6.77371 8.0033 6.77371 8.28768 7.05802L11.4886 10.259C11.7729 10.5433 11.7729 11.006 11.4886 11.2903Z" fill="#48A1AF"/>
<path d="M8.12727 7.218C7.93085 7.02158 7.61235 7.02154 7.41592 7.21797L7.327 7.30688C7.13058 7.50331 7.13058 7.82181 7.327 8.0182L10.5279 11.2191C10.7244 11.4156 11.0428 11.4156 11.2393 11.2191L11.3282 11.1302C11.5246 10.9338 11.5246 10.6153 11.3282 10.4189L8.12727 7.218Z" fill="white"/>
</svg>
