<svg width="21" height="21" viewBox="0 0 21 21" fill="none" xmlns="http://www.w3.org/2000/svg">
<path d="M10.7054 0.19714C5.28831 0.0903298 0.805814 4.38607 0.682129 9.80272C0.696263 12.56 1.91718 15.1729 4.02319 16.9526V19.8259C4.02319 20.0566 4.21019 20.2436 4.44084 20.2436C4.51911 20.2436 4.59581 20.2216 4.66217 20.1801L6.99007 18.7259C8.1761 19.1796 9.43554 19.4109 10.7054 19.4083C16.1224 19.5151 20.6049 15.2194 20.7286 9.80276C20.6049 4.38607 16.1224 0.0903298 10.7054 0.19714Z" fill="#2196F3"/>
<path d="M17.3041 7.04645C17.1799 6.87989 16.952 6.83005 16.7696 6.9295L12.4262 9.29749L9.72411 6.98044C9.55841 6.83839 9.31128 6.84783 9.15697 7.00217L4.14536 12.0138C3.98276 12.1774 3.98354 12.4418 4.14716 12.6044C4.27797 12.7344 4.47856 12.7633 4.64069 12.6753L8.98407 10.3073L11.6887 12.6252C11.8544 12.7672 12.1015 12.7578 12.2558 12.6035L17.2674 7.59185C17.4135 7.44444 17.4291 7.21215 17.3041 7.04645Z" fill="#FAFAFA"/>
</svg>
