<svg width="20" height="19" viewBox="0 0 20 19" fill="none" xmlns="http://www.w3.org/2000/svg">
<path d="M10.0304 0.107056H10.0259C5.00168 0.107056 0.916016 4.19385 0.916016 9.2192C0.916016 11.2125 1.55842 13.06 2.65074 14.5601L1.51514 17.9452L5.01762 16.8256C6.45848 17.7801 8.17726 18.3314 10.0304 18.3314C15.0547 18.3314 19.1403 14.2434 19.1403 9.2192C19.1403 4.19499 15.0547 0.107056 10.0304 0.107056Z" fill="#4CAF50"/>
<path d="M15.3325 12.9746C15.1126 13.5954 14.2401 14.1102 13.5442 14.2606C13.0681 14.3619 12.4462 14.4428 10.3527 13.5749C7.67483 12.4655 5.95036 9.74435 5.81595 9.5678C5.68725 9.39125 4.73389 8.12694 4.73389 6.81935C4.73389 5.51175 5.39793 4.87504 5.6656 4.60168C5.88543 4.37729 6.24878 4.27478 6.59732 4.27478C6.71008 4.27478 6.81146 4.28048 6.90258 4.28503C7.17025 4.29642 7.30465 4.31237 7.4812 4.73494C7.70103 5.26459 8.23637 6.57218 8.30015 6.70659C8.36508 6.84099 8.43 7.02323 8.33888 7.19978C8.25345 7.38202 8.17828 7.46289 8.04387 7.6178C7.90947 7.77271 7.7819 7.89116 7.6475 8.05746C7.52448 8.20212 7.38552 8.35702 7.54043 8.62469C7.69534 8.88667 8.23067 9.76029 9.01887 10.4619C10.036 11.3674 10.8607 11.6568 11.1557 11.7798C11.3755 11.8709 11.6375 11.8493 11.7981 11.6784C12.002 11.4586 12.2537 11.0941 12.51 10.7353C12.6922 10.4779 12.9223 10.446 13.1638 10.5371C13.4098 10.6225 14.7117 11.2661 14.9794 11.3993C15.247 11.5337 15.4236 11.5975 15.4885 11.7103C15.5523 11.8231 15.5523 12.3527 15.3325 12.9746Z" fill="#FAFAFA"/>
</svg>
