<svg width="72" height="91" viewBox="0 0 72 91" fill="none" xmlns="http://www.w3.org/2000/svg">
<path d="M61.0925 10.5055C47.2986 -3.28844 24.9085 -3.28844 11.1146 10.5055C9.81521 11.8049 8.7157 13.0044 7.71614 14.5037C11.1146 14.4037 14.4132 14.7036 17.8117 15.1034C19.1111 15.3033 20.4105 15.4033 21.71 15.6032C26.5078 16.3029 31.2058 17.4024 35.7038 19.1017C36.4035 19.4015 37.1031 19.6014 37.7029 19.9013C43.6003 22.4002 49.0978 26.0986 53.296 30.9964C56.8944 35.1945 59.5932 40.1923 61.4924 45.2901C62.6918 48.6886 63.5914 52.187 64.1912 55.5855C64.2911 55.7854 64.3911 55.9853 64.6909 55.9853C64.7909 55.9853 64.8909 55.8854 64.9908 55.8854L65.0908 55.7854V55.6855C74.8864 41.5917 73.1872 22.6001 61.0925 10.5055Z" fill="white"/>
<path d="M36.3035 27.6979C33.8046 25.7987 31.1058 24.1994 28.2071 22.9C25.2084 21.5006 22.1098 20.501 18.9112 19.7014C15.7126 18.9017 12.4141 18.2021 9.01557 17.8022C7.91606 17.7023 6.81654 17.5024 5.71703 17.4024C4.91738 18.5019 4.31765 19.8013 3.81787 21.0008C3.21813 22.3002 2.81831 23.4997 2.31853 24.7991C1.51888 27.398 1.01911 30.0968 0.819194 32.7956C0.619282 35.4944 0.719238 38.2932 1.11906 40.892C1.51888 43.5908 2.31853 46.2896 3.31809 48.7885C4.31765 51.1875 5.51712 53.3865 7.01645 55.4856L31.1058 88.371C32.4052 90.1702 34.7042 91.1698 36.9032 90.8699C39.5021 90.4701 41.2013 88.471 42.5008 86.3719C42.7007 86.072 42.9006 85.7722 43.1005 85.3723C43.4004 84.6726 43.7002 84.0729 44.0001 83.3732C44.3 82.5736 44.5998 81.674 44.8997 80.8743C45.4994 79.375 45.9992 77.6757 46.399 76.0764C46.499 75.6766 46.5989 75.2768 46.6989 74.9769C46.7989 74.6771 46.8988 74.3772 46.8988 74.0773C47.9983 69.8792 48.798 65.5811 49.0978 61.283C49.7975 52.7868 48.798 44.1906 44.5998 36.9937C42.7007 33.4953 39.8019 30.2967 36.3035 27.6979Z" fill="white"/>
</svg>
