<svg width="390" height="273" viewBox="0 0 390 273" fill="none" xmlns="http://www.w3.org/2000/svg">
<path d="M-0.0322571 0H389.968V212.859C389.968 245.599 363.427 272.139 330.688 272.139H194.401C148.246 272.139 103.181 258.117 65.1746 231.93L-0.0322571 187.001V0Z" fill="#B2002D"/>
<path d="M159.097 -61.7079C161.863 -61.7079 163.245 -63.0793 163.245 -65.8223C163.245 -68.5653 161.863 -71.3082 159.097 -71.3082C156.331 -71.3082 153.566 -68.5653 153.566 -65.8223C153.566 -63.0793 156.331 -61.7079 159.097 -61.7079Z" fill="#1488CC" fill-opacity="0.2"/>
<path d="M178.456 -61.7078C181.222 -61.7078 183.987 -64.4508 183.987 -67.1938C183.987 -69.9367 181.222 -72.6797 178.456 -72.6797C175.691 -71.3082 172.925 -68.5652 172.925 -65.8223C172.925 -63.0793 175.691 -61.7078 178.456 -61.7078Z" fill="#1488CC" fill-opacity="0.2"/>
<path d="M197.816 -61.7078C200.581 -61.7078 203.347 -64.4508 203.347 -67.1938C203.347 -69.9367 200.581 -72.6797 197.816 -72.6797C195.05 -72.6797 192.284 -69.9367 192.284 -67.1938C193.667 -63.0793 195.05 -61.7078 197.816 -61.7078Z" fill="#1488CC" fill-opacity="0.2"/>
<path d="M237.917 -61.7078C240.682 -61.7078 243.448 -64.4508 243.448 -67.1938C243.448 -69.9367 240.682 -72.6797 237.917 -72.6797C235.151 -72.6797 232.386 -69.9367 232.386 -67.1938C233.768 -63.0793 235.151 -61.7078 237.917 -61.7078Z" fill="#1488CC" fill-opacity="0.2"/>
<path d="M258.659 -63.0793C260.042 -63.0793 261.425 -64.4508 261.425 -65.8223C261.425 -67.1937 260.042 -68.5652 258.659 -68.5652C257.276 -68.5652 255.893 -67.1937 255.893 -65.8223C254.511 -64.4508 255.893 -63.0793 258.659 -63.0793Z" fill="#1488CC" fill-opacity="0.2"/>
<path d="M278.018 -65.8223C279.401 -67.1937 278.018 -67.1937 278.018 -67.1937C278.018 -67.1937 278.018 -67.1937 278.018 -65.8223Z" fill="#1488CC" fill-opacity="0.2"/>
<path d="M98.2534 -41.1356C101.019 -41.1356 103.785 -43.8786 103.785 -46.6216C103.785 -49.3645 101.019 -52.1075 98.2534 -52.1075C95.4878 -52.1075 94.105 -49.3645 94.105 -46.6216C94.105 -43.8786 95.4878 -41.1356 98.2534 -41.1356Z" fill="#1488CC" fill-opacity="0.2"/>
<path d="M118.996 -45.25C120.378 -46.6215 118.996 -47.993 118.996 -47.993C117.613 -47.993 117.613 -46.6215 118.996 -45.25C117.613 -45.25 117.613 -45.25 118.996 -45.25Z" fill="#1488CC" fill-opacity="0.2"/>
<path d="M138.355 -43.8786C139.738 -43.8786 141.12 -45.2501 141.12 -46.6216C141.12 -47.9931 139.738 -49.3646 138.355 -49.3646C136.972 -49.3646 135.589 -47.9931 135.589 -46.6216C135.589 -45.2501 136.972 -43.8786 138.355 -43.8786Z" fill="#1488CC" fill-opacity="0.2"/>
<path d="M159.097 -41.1356C161.862 -41.1356 163.245 -43.8786 163.245 -46.6216C163.245 -49.3645 160.48 -52.1075 157.714 -52.1075C154.948 -52.1075 152.183 -49.3645 152.183 -46.6216C153.566 -43.8786 156.331 -41.1356 159.097 -41.1356Z" fill="#1488CC" fill-opacity="0.2"/>
<path d="M178.456 -45.25C178.456 -46.6215 179.839 -46.6215 178.456 -45.25C178.456 -46.6215 178.456 -46.6215 178.456 -45.25Z" fill="#1488CC" fill-opacity="0.2"/>
<path d="M197.815 -45.25C199.198 -45.25 199.198 -45.25 197.815 -45.25C199.198 -46.6215 197.815 -47.993 197.815 -47.993C197.815 -47.993 197.815 -46.6215 197.815 -45.25Z" fill="#1488CC" fill-opacity="0.2"/>
<path d="M237.917 -45.25C239.3 -45.25 239.3 -45.25 239.3 -46.6215C239.3 -47.993 239.3 -47.993 237.917 -47.993C236.534 -47.993 236.534 -47.993 236.534 -46.6215C236.534 -45.25 237.917 -45.25 237.917 -45.25Z" fill="#1488CC" fill-opacity="0.2"/>
<path d="M258.659 -42.5071C261.425 -42.5071 262.808 -43.8786 262.808 -46.6216C262.808 -49.3645 261.425 -50.736 258.659 -50.736C255.893 -50.736 254.511 -49.3645 254.511 -46.6216C254.511 -43.8786 255.893 -42.5071 258.659 -42.5071Z" fill="#1488CC" fill-opacity="0.2"/>
<path d="M278.018 -45.25C279.401 -46.6215 278.018 -46.6215 278.018 -46.6215C278.018 -47.993 276.635 -46.6215 278.018 -45.25Z" fill="#1488CC" fill-opacity="0.2"/>
<path d="M59.5349 -26.0493C60.9177 -27.4208 59.5349 -27.4208 59.5349 -27.4208C58.1521 -27.4208 58.1521 -27.4208 59.5349 -26.0493C58.1521 -26.0493 58.1521 -26.0493 59.5349 -26.0493Z" fill="#1488CC" fill-opacity="0.2"/>
<path d="M98.2535 -23.3064C99.6363 -23.3064 101.019 -24.6779 101.019 -26.0494C102.402 -28.7923 101.019 -30.1638 98.2535 -30.1638C96.8707 -30.1638 95.4879 -28.7923 95.4879 -27.4208C95.4879 -24.6779 96.8707 -23.3064 98.2535 -23.3064Z" fill="#1488CC" fill-opacity="0.2"/>
<path d="M118.996 -23.3064C121.761 -23.3064 123.144 -24.6779 123.144 -27.4208C123.144 -28.7923 120.378 -30.1638 118.996 -30.1638C116.23 -30.1638 114.847 -28.7923 114.847 -27.4208C114.847 -24.6779 116.23 -23.3064 118.996 -23.3064Z" fill="#1488CC" fill-opacity="0.2"/>
<path d="M138.355 -23.3064C139.738 -23.3064 141.12 -24.6779 141.12 -26.0494C142.503 -28.7923 141.12 -30.1638 138.355 -30.1638C136.972 -30.1638 135.589 -28.7923 135.589 -27.4208C135.589 -24.6779 136.972 -23.3064 138.355 -23.3064Z" fill="#1488CC" fill-opacity="0.2"/>
<path d="M159.097 -20.5634C163.245 -20.5634 166.011 -23.3064 166.011 -27.4208C166.011 -31.5352 163.245 -34.2782 159.097 -34.2782C154.948 -32.9067 152.183 -30.1638 152.183 -27.4208C152.183 -23.3064 154.948 -20.5634 159.097 -20.5634Z" fill="#1488CC" fill-opacity="0.2"/>
<path d="M178.456 -19.192C182.605 -19.192 186.753 -21.9349 186.753 -27.4208C186.753 -32.9068 183.987 -35.6497 178.456 -35.6497C174.308 -35.6497 170.159 -32.9068 170.159 -27.4208C170.159 -21.9349 174.308 -19.192 178.456 -19.192Z" fill="#1488CC" fill-opacity="0.2"/>
<path d="M197.816 -21.9349C200.87 -21.9349 203.347 -24.391 203.347 -27.4208C203.347 -30.4506 200.87 -32.9067 197.816 -32.9067C194.761 -32.9067 192.284 -30.4506 192.284 -27.4208C192.284 -24.391 194.761 -21.9349 197.816 -21.9349Z" fill="#1488CC" fill-opacity="0.2"/>
<path d="M218.558 -21.9349C221.323 -21.9349 224.089 -24.6778 224.089 -27.4208C224.089 -30.1638 221.323 -32.9067 218.558 -32.9067C215.792 -32.9067 213.026 -30.1638 213.026 -27.4208C213.026 -23.3064 215.792 -21.9349 218.558 -21.9349Z" fill="#1488CC" fill-opacity="0.2"/>
<path d="M237.917 -24.6778C239.3 -24.6778 239.3 -24.6778 239.3 -26.0493C239.3 -27.4208 239.3 -27.4208 237.917 -27.4208C236.534 -27.4208 236.534 -27.4208 236.534 -26.0493L237.917 -24.6778Z" fill="#1488CC" fill-opacity="0.2"/>
<path d="M258.659 -26.0494C259.423 -26.0494 260.042 -26.6634 260.042 -27.4209C260.042 -28.1783 259.423 -28.7924 258.659 -28.7924C257.895 -28.7924 257.276 -28.1783 257.276 -27.4209C257.276 -26.6634 257.895 -26.0494 258.659 -26.0494Z" fill="#1488CC" fill-opacity="0.2"/>
<path d="M278.018 -20.5634C282.167 -20.5634 284.932 -23.3064 284.932 -27.4208C284.932 -31.5352 282.167 -34.2782 278.018 -34.2782C273.87 -34.2782 271.104 -31.5352 271.104 -27.4208C271.104 -23.3064 273.87 -20.5634 278.018 -20.5634Z" fill="#1488CC" fill-opacity="0.2"/>
<path d="M297.378 -26.0493C298.76 -26.0493 298.76 -26.0493 297.378 -26.0493C298.76 -27.4208 297.378 -27.4208 297.378 -27.4208C297.378 -27.4208 297.378 -27.4208 297.378 -26.0493Z" fill="#1488CC" fill-opacity="0.2"/>
<path d="M78.8942 -5.4772C80.277 -5.4772 80.277 -5.4772 80.277 -6.84868C80.277 -8.22015 80.277 -8.22015 78.8942 -8.22015C77.5114 -8.22015 77.5114 -6.84868 77.5114 -6.84868C77.5114 -5.4772 77.5114 -5.4772 78.8942 -5.4772Z" fill="#1488CC" fill-opacity="0.2"/>
<path d="M98.2534 -2.73414C101.019 -2.73414 102.402 -4.10563 102.402 -6.84859C102.402 -9.59156 101.019 -10.963 98.2534 -10.963C95.4878 -10.963 94.105 -9.59156 94.105 -6.84859C95.4878 -5.47711 96.8706 -2.73414 98.2534 -2.73414Z" fill="#1488CC" fill-opacity="0.2"/>
<path d="M118.995 -1.36266C121.761 -1.36266 124.527 -4.10562 124.527 -6.84859C124.527 -9.59155 121.761 -12.3345 118.995 -12.3345C116.23 -12.3345 113.464 -9.59155 113.464 -6.84859C113.464 -4.10562 114.847 -1.36266 118.995 -1.36266Z" fill="#1488CC" fill-opacity="0.2"/>
<path d="M138.355 -1.36266C141.12 -1.36266 143.886 -4.10562 143.886 -6.84859C143.886 -9.59155 141.12 -12.3345 138.355 -12.3345C135.589 -12.3345 132.824 -9.59155 132.824 -6.84859C132.824 -4.10562 135.589 -1.36266 138.355 -1.36266Z" fill="#1488CC" fill-opacity="0.2"/>
<path d="M159.097 -2.73414C160.48 -2.73414 163.245 -4.10563 163.245 -6.84859C163.245 -9.59156 160.48 -10.963 159.097 -10.963C157.714 -10.963 154.948 -9.59156 154.948 -6.84859C154.948 -4.10563 156.331 -2.73414 159.097 -2.73414Z" fill="#1488CC" fill-opacity="0.2"/>
<path d="M178.456 0.00884247C182.605 0.00884247 185.37 -2.73412 185.37 -6.84856C185.37 -10.963 182.605 -13.706 178.456 -13.706C174.308 -13.706 171.542 -10.963 171.542 -6.84856C171.542 -2.73412 174.308 0.00884247 178.456 0.00884247Z" fill="#1488CC" fill-opacity="0.2"/>
<path d="M197.815 0.00884247C201.964 0.00884247 204.73 -2.73412 204.73 -6.84856C204.73 -10.963 201.964 -13.706 197.815 -13.706C193.667 -13.706 190.901 -10.963 190.901 -6.84856C190.901 -2.73412 195.05 0.00884247 197.815 0.00884247Z" fill="#1488CC" fill-opacity="0.2"/>
<path d="M218.558 -1.36266C221.323 -1.36266 224.089 -4.10562 224.089 -6.84859C224.089 -9.59155 221.323 -12.3345 218.558 -12.3345C215.792 -12.3345 213.026 -9.59155 213.026 -6.84859C213.026 -4.10562 215.792 -1.36266 218.558 -1.36266Z" fill="#1488CC" fill-opacity="0.2"/>
<path d="M237.917 0.00884247C242.065 0.00884247 244.831 -2.73412 244.831 -6.84856C244.831 -10.963 242.065 -13.706 237.917 -13.706C233.768 -13.706 231.003 -10.963 231.003 -6.84856C232.386 -4.1056 235.151 0.00884247 237.917 0.00884247Z" fill="#1488CC" fill-opacity="0.2"/>
<path d="M258.659 -2.73414C261.424 -2.73414 262.807 -4.10563 262.807 -6.84859C262.807 -9.59156 261.424 -10.963 258.659 -10.963C255.893 -10.963 254.51 -9.59156 254.51 -6.84859C253.128 -4.10563 255.893 -2.73414 258.659 -2.73414Z" fill="#1488CC" fill-opacity="0.2"/>
<path d="M278.018 -4.10564C279.401 -4.10564 280.784 -5.47713 280.784 -6.84861C280.784 -8.22009 279.401 -9.59156 278.018 -9.59156C276.635 -9.59156 275.253 -8.22009 275.253 -6.84861C275.253 -5.47713 276.635 -4.10564 278.018 -4.10564Z" fill="#1488CC" fill-opacity="0.2"/>
<path d="M318.12 -5.47717C319.502 -6.84865 318.12 -6.84866 318.12 -6.84866C318.12 -8.22013 316.737 -6.84865 318.12 -5.47717Z" fill="#1488CC" fill-opacity="0.2"/>
<path d="M59.5349 13.7236C60.9177 12.3521 59.5349 12.3521 59.5349 12.3521C58.1521 12.3521 58.1521 12.3521 59.5349 13.7236C58.1521 13.7236 58.1521 13.7236 59.5349 13.7236Z" fill="#1488CC" fill-opacity="0.2"/>
<path d="M78.8942 15.0951C80.277 15.0951 80.277 13.7236 80.277 12.3521C80.277 10.9806 80.277 10.9806 78.8942 10.9806C77.5114 10.9806 77.5114 10.9806 77.5114 12.3521C77.5114 13.7236 77.5114 15.0951 78.8942 15.0951Z" fill="#1488CC" fill-opacity="0.2"/>
<path d="M98.2535 16.4666C99.6363 16.4666 101.019 15.0951 101.019 13.7236C101.019 12.3521 99.6363 10.9806 98.2535 10.9806C96.8707 9.60917 95.4879 10.9806 95.4879 12.3521C95.4879 15.0951 96.8707 16.4666 98.2535 16.4666Z" fill="#1488CC" fill-opacity="0.2"/>
<path d="M118.995 13.7236C120.378 13.7236 120.378 12.3521 120.378 12.3521C120.378 12.3521 120.378 10.9806 118.995 10.9806C117.613 10.9806 117.613 12.3521 117.613 12.3521C117.613 13.7236 117.613 13.7236 118.995 13.7236Z" fill="#1488CC" fill-opacity="0.2"/>
<path d="M138.355 16.4666C139.738 16.4666 142.503 15.0951 142.503 12.3521C142.503 10.9806 141.12 8.23767 138.355 8.23767C136.972 9.60915 135.589 10.9806 135.589 12.3521C135.589 15.0951 136.972 16.4666 138.355 16.4666Z" fill="#1488CC" fill-opacity="0.2"/>
<path d="M159.097 19.2095C163.245 19.2095 166.011 16.4665 166.011 12.3521C166.011 8.23763 163.245 5.49467 159.097 5.49467C154.948 5.49467 152.183 8.23763 152.183 12.3521C152.183 16.4665 154.948 19.2095 159.097 19.2095Z" fill="#1488CC" fill-opacity="0.2"/>
<path d="M178.456 19.2095C182.605 19.2095 185.37 16.4665 185.37 12.3521C185.37 8.23763 182.605 5.49467 178.456 5.49467C174.308 5.49467 171.542 8.23763 171.542 12.3521C171.542 16.4665 174.308 19.2095 178.456 19.2095Z" fill="#1488CC" fill-opacity="0.2"/>
<path d="M197.815 19.2095C201.964 19.2095 204.73 16.4665 204.73 12.3521C204.73 8.23763 201.964 5.49467 197.815 5.49467C193.667 5.49467 190.901 8.23763 190.901 12.3521C192.284 16.4665 195.05 19.2095 197.815 19.2095Z" fill="#1488CC" fill-opacity="0.2"/>
<path d="M218.558 19.2095C221.323 19.2095 224.089 16.4666 224.089 13.7236C224.089 10.9806 221.323 8.23767 218.558 8.23767C215.792 8.23767 213.026 10.9806 213.026 13.7236C213.026 16.4666 214.409 19.2095 218.558 19.2095Z" fill="#1488CC" fill-opacity="0.2"/>
<path d="M237.917 17.8381C240.682 17.8381 243.448 15.0952 243.448 12.3522C243.448 9.60923 240.682 6.86626 237.917 6.86626C235.151 6.86626 232.386 9.60923 232.386 12.3522C232.386 15.0952 235.151 17.8381 237.917 17.8381Z" fill="#1488CC" fill-opacity="0.2"/>
<path d="M258.659 15.0951C260.042 15.0951 260.042 13.7236 260.042 12.3521C260.042 10.9806 260.042 10.9806 258.659 10.9806C257.276 10.9806 255.893 12.3521 255.893 13.7236C255.893 13.7236 257.276 15.0951 258.659 15.0951Z" fill="#1488CC" fill-opacity="0.2"/>
<path d="M278.018 17.8381C281.073 17.8381 283.549 15.382 283.549 12.3522C283.549 9.32239 281.073 6.86626 278.018 6.86626C274.963 6.86626 272.487 9.32239 272.487 12.3522C272.487 15.382 274.963 17.8381 278.018 17.8381Z" fill="#1488CC" fill-opacity="0.2"/>
<path d="M297.378 13.7236C298.76 13.7236 298.76 13.7236 298.76 12.3521C298.76 10.9806 298.76 10.9806 297.378 10.9806C295.995 10.9806 295.995 10.9806 295.995 12.3521C295.995 13.7236 297.378 13.7236 297.378 13.7236Z" fill="#1488CC" fill-opacity="0.2"/>
<path d="M318.12 19.2095C322.268 19.2095 325.034 16.4665 325.034 12.3521C325.034 8.23763 322.268 5.49467 318.12 5.49467C313.971 5.49467 311.206 8.23763 311.206 12.3521C311.206 16.4665 313.971 19.2095 318.12 19.2095Z" fill="#1488CC" fill-opacity="0.2"/>
<path d="M337.479 13.7236C338.862 13.7236 338.862 13.7236 337.479 13.7236C338.862 12.3521 337.479 12.3521 337.479 12.3521C337.479 12.3521 337.479 12.3521 337.479 13.7236Z" fill="#1488CC" fill-opacity="0.2"/>
<path d="M59.5349 34.2958C60.9177 34.2958 62.3005 32.9243 62.3005 31.5528C62.3005 30.1814 60.9177 30.1814 59.5349 30.1814C58.1521 30.1814 56.7693 31.5528 56.7693 32.9243C56.7693 34.2958 58.1521 34.2958 59.5349 34.2958Z" fill="#1488CC" fill-opacity="0.2"/>
<path d="M78.8941 34.2958C80.2769 34.2958 81.6597 32.9243 81.6597 31.5528C81.6597 30.1814 80.2769 30.1814 78.8941 30.1814C77.5113 30.1814 76.1285 31.5528 76.1285 32.9243C76.1285 34.2958 77.5113 34.2958 78.8941 34.2958Z" fill="#1488CC" fill-opacity="0.2"/>
<path d="M98.2534 37.0387C101.019 37.0387 103.785 34.2958 103.785 31.5528C103.785 28.8099 101.019 26.0669 98.2534 26.0669C95.4878 27.4384 94.105 30.1813 94.105 32.9243C94.105 35.6673 95.4878 37.0387 98.2534 37.0387Z" fill="#1488CC" fill-opacity="0.2"/>
<path d="M118.996 34.2958C120.378 34.2958 121.761 32.9243 121.761 31.5528C121.761 30.1814 120.378 30.1814 118.996 30.1814C117.613 30.1814 116.23 31.5528 116.23 32.9243C116.23 34.2958 117.613 34.2958 118.996 34.2958Z" fill="#1488CC" fill-opacity="0.2"/>
<path d="M138.355 35.6673C139.738 35.6673 141.12 34.2958 141.12 32.9243C141.12 31.5529 139.738 28.8099 138.355 28.8099C136.972 28.8099 135.589 30.1814 135.589 32.9243C135.589 35.6673 136.972 35.6673 138.355 35.6673Z" fill="#1488CC" fill-opacity="0.2"/>
<path d="M159.097 37.0388C160.48 37.0388 163.245 34.2958 163.245 32.9243C163.245 30.1814 161.862 28.8099 159.097 28.8099C156.331 28.8099 154.948 30.1814 154.948 32.9243C154.948 34.2958 156.331 37.0388 159.097 37.0388Z" fill="#1488CC" fill-opacity="0.2"/>
<path d="M178.456 38.4103C181.511 38.4103 183.987 35.9541 183.987 32.9244C183.987 29.8946 181.511 27.4384 178.456 27.4384C175.401 27.4384 172.925 29.8946 172.925 32.9244C172.925 35.9541 175.401 38.4103 178.456 38.4103Z" fill="#1488CC" fill-opacity="0.2"/>
<path d="M197.816 38.4103C200.581 38.4103 203.347 35.6673 203.347 32.9244C203.347 30.1814 200.581 27.4384 197.816 27.4384C195.05 27.4384 192.284 30.1814 192.284 32.9244C192.284 35.6673 195.05 38.4103 197.816 38.4103Z" fill="#1488CC" fill-opacity="0.2"/>
<path d="M218.558 37.0388C221.323 37.0388 222.706 35.6673 222.706 32.9243C222.706 30.1814 221.323 28.8099 218.558 28.8099C215.792 28.8099 214.409 30.1814 214.409 32.9243C214.409 34.2958 215.792 37.0388 218.558 37.0388Z" fill="#1488CC" fill-opacity="0.2"/>
<path d="M237.917 37.0388C240.683 37.0388 242.065 35.6673 242.065 32.9243C242.065 30.1814 240.683 28.8099 237.917 28.8099C235.151 28.8099 233.769 30.1814 233.769 32.9243C233.769 34.2958 236.534 37.0388 237.917 37.0388Z" fill="#1488CC" fill-opacity="0.2"/>
<path d="M258.659 35.6673C260.186 35.6673 261.425 34.4392 261.425 32.9243C261.425 31.4094 260.186 30.1814 258.659 30.1814C257.132 30.1814 255.893 31.4094 255.893 32.9243C255.893 34.4392 257.132 35.6673 258.659 35.6673Z" fill="#1488CC" fill-opacity="0.2"/>
<path d="M278.018 37.0388C280.784 37.0388 282.167 35.6673 282.167 32.9243C282.167 30.1814 280.784 28.8099 278.018 28.8099C275.253 28.8099 273.87 30.1814 273.87 32.9243C273.87 35.6673 275.253 37.0388 278.018 37.0388Z" fill="#1488CC" fill-opacity="0.2"/>
<path d="M297.378 35.6673C298.76 35.6673 300.143 34.2958 300.143 32.9243C300.143 31.5528 298.76 30.1814 297.378 30.1814C295.995 30.1814 294.612 31.5528 294.612 32.9243C294.612 34.2958 295.995 35.6673 297.378 35.6673Z" fill="#1488CC" fill-opacity="0.2"/>
<path d="M318.12 37.0388C320.885 37.0388 322.268 35.6673 322.268 32.9243C322.268 30.1814 320.885 28.8099 318.12 28.8099C315.354 28.8099 313.971 30.1814 313.971 32.9243C313.971 35.6673 315.354 37.0388 318.12 37.0388Z" fill="#1488CC" fill-opacity="0.2"/>
<path d="M337.479 35.6673C339.006 35.6673 340.245 34.4392 340.245 32.9243C340.245 31.4094 339.006 30.1814 337.479 30.1814C335.952 30.1814 334.713 31.4094 334.713 32.9243C334.713 34.4392 335.952 35.6673 337.479 35.6673Z" fill="#1488CC" fill-opacity="0.2"/>
<path d="M59.5348 57.611C62.3004 57.611 65.0661 54.8681 65.0661 52.1251C65.0661 49.3821 62.3004 46.6392 59.5348 46.6392C55.3864 46.6392 52.6208 49.3821 52.6208 52.1251C52.6208 54.8681 55.3864 57.611 59.5348 57.611Z" fill="#1488CC" fill-opacity="0.2"/>
<path d="M78.8941 57.611C81.6597 57.611 84.4253 54.8681 84.4253 52.1251C84.4253 49.3821 81.6597 46.6392 78.8941 46.6392C76.1285 46.6392 73.3629 49.3821 73.3629 52.1251C73.3629 54.8681 76.1285 57.611 78.8941 57.611Z" fill="#1488CC" fill-opacity="0.2"/>
<path d="M98.2535 56.2395C101.019 56.2395 102.402 54.868 102.402 52.1251C102.402 49.3821 101.019 48.0107 98.2535 48.0107C96.8707 48.0107 95.4879 49.3821 95.4879 52.1251C95.4879 54.868 96.8707 56.2395 98.2535 56.2395Z" fill="#1488CC" fill-opacity="0.2"/>
<path d="M118.996 54.868C120.378 54.868 121.761 53.4966 121.761 52.1251C121.761 50.7536 120.378 49.3821 118.996 49.3821C117.613 49.3821 116.23 50.7536 116.23 52.1251C116.23 53.4966 117.613 54.868 118.996 54.868Z" fill="#1488CC" fill-opacity="0.2"/>
<path d="M138.355 54.868C139.738 54.868 141.12 53.4966 141.12 52.1251C141.12 50.7536 139.738 49.3821 138.355 49.3821C136.972 49.3821 135.589 50.7536 135.589 52.1251C135.589 53.4966 136.972 54.868 138.355 54.868Z" fill="#1488CC" fill-opacity="0.2"/>
<path d="M159.097 54.868C160.624 54.868 161.863 53.64 161.863 52.1251C161.863 50.6102 160.624 49.3821 159.097 49.3821C157.569 49.3821 156.331 50.6102 156.331 52.1251C156.331 53.64 157.569 54.868 159.097 54.868Z" fill="#1488CC" fill-opacity="0.2"/>
<path d="M178.456 56.2395C181.222 56.2395 182.605 54.868 182.605 52.1251C182.605 49.3821 181.222 48.0107 178.456 48.0107C175.691 48.0107 174.308 49.3821 174.308 52.1251C174.308 54.868 175.691 56.2395 178.456 56.2395Z" fill="#1488CC" fill-opacity="0.2"/>
<path d="M197.815 56.2395C200.581 56.2395 201.964 54.868 201.964 52.1251C201.964 49.3821 200.581 48.0107 197.815 48.0107C195.05 48.0107 193.667 49.3821 193.667 52.1251C193.667 54.868 196.433 56.2395 197.815 56.2395Z" fill="#1488CC" fill-opacity="0.2"/>
<path d="M218.558 57.611C221.323 57.611 224.089 54.8681 224.089 52.1251C224.089 49.3821 221.323 46.6392 218.558 46.6392C215.792 46.6392 213.026 49.3821 213.026 52.1251C211.644 56.2395 214.409 57.611 218.558 57.611Z" fill="#1488CC" fill-opacity="0.2"/>
<path d="M237.917 57.611C240.682 57.611 243.448 54.8681 243.448 52.1251C243.448 49.3821 240.682 46.6392 237.917 46.6392C235.151 46.6392 232.386 49.3821 232.386 52.1251C232.386 54.8681 235.151 57.611 237.917 57.611Z" fill="#1488CC" fill-opacity="0.2"/>
<path d="M258.659 57.611C261.425 57.611 264.19 54.8681 264.19 52.1251C264.19 49.3821 261.425 46.6392 258.659 46.6392C255.893 46.6392 253.128 49.3821 253.128 52.1251C253.128 54.8681 255.893 57.611 258.659 57.611Z" fill="#1488CC" fill-opacity="0.2"/>
<path d="M278.018 56.2395C280.784 56.2395 282.167 54.868 282.167 52.1251C282.167 49.3821 280.784 48.0107 278.018 48.0107C275.253 48.0107 273.87 49.3821 273.87 52.1251C273.87 54.868 275.253 56.2395 278.018 56.2395Z" fill="#1488CC" fill-opacity="0.2"/>
<path d="M297.378 53.4965C298.76 52.125 298.76 53.4965 297.378 53.4965C298.76 52.125 297.378 52.125 297.378 52.125C297.378 50.7536 297.378 52.125 297.378 53.4965Z" fill="#1488CC" fill-opacity="0.2"/>
<path d="M318.12 53.4966C319.503 53.4966 319.503 53.4966 319.503 52.1251C319.503 50.7536 319.503 50.7536 318.12 50.7536C316.737 50.7536 316.737 50.7536 316.737 52.1251C316.737 53.4966 316.737 53.4966 318.12 53.4966Z" fill="#1488CC" fill-opacity="0.2"/>
<path d="M337.479 54.868C338.862 54.868 340.245 53.4966 340.245 52.1251C340.245 50.7536 338.862 49.3821 337.479 49.3821C336.096 49.3821 334.713 50.7536 334.713 52.1251C334.713 53.4966 336.096 54.868 337.479 54.868Z" fill="#1488CC" fill-opacity="0.2"/>
<path d="M358.221 57.611C360.987 57.611 363.752 54.8681 363.752 52.1251C363.752 49.3821 360.987 46.6392 358.221 46.6392C355.455 46.6392 352.69 49.3821 352.69 52.1251C352.69 54.8681 355.455 57.611 358.221 57.611Z" fill="#1488CC" fill-opacity="0.2"/>
<path d="M59.5348 78.1831C63.6832 78.1831 66.4489 75.4402 66.4489 71.3257C66.4489 68.5828 62.3004 65.8398 59.5348 65.8398C55.3864 65.8398 52.6208 68.5828 52.6208 71.3257C52.6208 75.4402 55.3864 78.1831 59.5348 78.1831Z" fill="#1488CC" fill-opacity="0.2"/>
<path d="M78.8941 74.0688C80.2769 74.0688 81.6597 72.6973 81.6597 71.3258C81.6597 69.9543 80.2769 69.9544 78.8941 69.9544C77.5113 69.9544 76.1285 71.3258 76.1285 72.6973C76.1285 74.0688 77.5113 74.0688 78.8941 74.0688Z" fill="#1488CC" fill-opacity="0.2"/>
<path d="M98.2535 75.4403C99.6363 75.4403 101.019 74.0688 101.019 72.6973C101.019 71.3258 99.6363 69.9544 98.2535 69.9544C96.8707 69.9544 95.4879 71.3258 95.4879 72.6973C95.4879 74.0688 96.8707 75.4403 98.2535 75.4403Z" fill="#1488CC" fill-opacity="0.2"/>
<path d="M118.996 78.1832C123.144 78.1832 125.91 75.4403 125.91 71.3258C125.91 67.2114 123.144 64.4684 118.996 64.4684C114.847 64.4684 112.082 67.2114 112.082 71.3258C112.082 75.4403 114.847 78.1832 118.996 78.1832Z" fill="#1488CC" fill-opacity="0.2"/>
<path d="M138.355 76.8117C141.12 76.8117 143.886 74.0687 143.886 71.3257C143.886 68.5828 141.12 65.8398 138.355 65.8398C135.589 65.8398 132.824 68.5828 132.824 71.3257C132.824 74.0687 135.589 76.8117 138.355 76.8117Z" fill="#1488CC" fill-opacity="0.2"/>
<path d="M159.097 76.8117C161.863 76.8117 164.628 74.0687 164.628 71.3257C164.628 68.5828 161.863 65.8398 159.097 65.8398C156.331 65.8398 153.566 68.5828 153.566 71.3257C153.566 74.0687 154.949 76.8117 159.097 76.8117Z" fill="#1488CC" fill-opacity="0.2"/>
<path d="M178.456 78.1831C181.222 78.1831 183.987 75.4402 183.987 72.6972C183.987 69.9543 181.222 65.8398 178.456 65.8398C175.691 65.8398 172.925 68.5828 172.925 71.3257C172.925 74.0687 175.691 78.1831 178.456 78.1831Z" fill="#1488CC" fill-opacity="0.2"/>
<path d="M197.815 75.4403C200.107 75.4403 201.964 73.5982 201.964 71.3259C201.964 69.0535 200.107 67.2114 197.815 67.2114C195.524 67.2114 193.667 69.0535 193.667 71.3259C193.667 73.5982 195.524 75.4403 197.815 75.4403Z" fill="#1488CC" fill-opacity="0.2"/>
<path d="M218.558 76.8118C221.323 76.8118 222.706 75.4403 222.706 72.6973C222.706 69.9544 221.323 68.5829 218.558 68.5829C215.792 68.5829 214.409 69.9544 214.409 72.6973C214.409 75.4403 215.792 76.8118 218.558 76.8118Z" fill="#1488CC" fill-opacity="0.2"/>
<path d="M237.917 76.8117C240.682 76.8117 243.448 74.0687 243.448 71.3257C243.448 68.5828 240.682 65.8398 237.917 65.8398C235.151 65.8398 232.386 68.5828 232.386 71.3257C232.386 75.4402 235.151 76.8117 237.917 76.8117Z" fill="#1488CC" fill-opacity="0.2"/>
<path d="M258.659 76.8117C261.425 76.8117 264.19 74.0687 264.19 71.3257C264.19 68.5828 261.425 65.8398 258.659 65.8398C255.893 65.8398 253.128 68.5828 253.128 71.3257C253.128 74.0687 255.893 76.8117 258.659 76.8117Z" fill="#1488CC" fill-opacity="0.2"/>
<path d="M278.018 76.8117C280.784 76.8117 283.549 74.0687 283.549 71.3257C283.549 68.5828 280.784 65.8398 278.018 65.8398C275.253 65.8398 272.487 68.5828 272.487 71.3257C272.487 75.4402 275.253 76.8117 278.018 76.8117Z" fill="#1488CC" fill-opacity="0.2"/>
<path d="M297.378 78.1833C300.143 78.1833 302.909 75.4403 302.909 72.6973C302.909 69.9544 300.143 67.2114 297.378 67.2114C294.612 67.2114 291.846 69.9544 291.846 72.6973C291.846 75.4403 294.612 78.1833 297.378 78.1833Z" fill="#1488CC" fill-opacity="0.2"/>
<path d="M318.12 72.6973C318.12 71.3258 318.12 71.3258 318.12 72.6973C316.737 71.3258 318.12 71.3258 318.12 72.6973Z" fill="#1488CC" fill-opacity="0.2"/>
<path d="M337.479 72.6973C338.243 72.6973 338.862 72.0833 338.862 71.3258C338.862 70.5684 338.243 69.9544 337.479 69.9544C336.715 69.9544 336.096 70.5684 336.096 71.3258C336.096 72.0833 336.715 72.6973 337.479 72.6973Z" fill="#1488CC" fill-opacity="0.2"/>
<path d="M78.8942 93.2695C80.277 93.2695 80.277 93.2695 80.277 91.898C80.277 90.5265 78.8942 90.5265 78.8942 90.5265C77.5114 90.5265 77.5114 91.898 77.5114 91.898C77.5114 93.2695 77.5114 93.2695 78.8942 93.2695Z" fill="#1488CC" fill-opacity="0.2"/>
<path d="M98.2534 97.3839C101.019 97.3839 103.785 94.6409 103.785 91.898C103.785 89.155 101.019 86.412 98.2534 86.412C95.4878 86.412 92.7221 89.155 92.7221 91.898C92.7221 94.6409 95.4878 97.3839 98.2534 97.3839Z" fill="#1488CC" fill-opacity="0.2"/>
<path d="M118.995 97.3839C121.761 97.3839 124.527 94.6409 124.527 91.898C124.527 89.155 121.761 86.412 118.995 86.412C116.23 86.412 113.464 89.155 113.464 91.898C113.464 94.6409 114.847 97.3839 118.995 97.3839Z" fill="#1488CC" fill-opacity="0.2"/>
<path d="M138.355 96.0125C141.12 96.0125 142.503 94.641 142.503 91.898C142.503 89.1551 141.12 87.7836 138.355 87.7836C135.589 87.7836 134.206 89.1551 134.206 91.898C134.206 94.641 136.972 96.0125 138.355 96.0125Z" fill="#1488CC" fill-opacity="0.2"/>
<path d="M159.097 97.3839C161.863 97.3839 164.628 94.6409 164.628 91.898C164.628 89.155 161.863 86.412 159.097 86.412C156.331 86.412 153.566 89.155 153.566 91.898C153.566 94.6409 156.331 97.3839 159.097 97.3839Z" fill="#1488CC" fill-opacity="0.2"/>
<path d="M178.456 96.0125C181.222 96.0125 182.605 94.641 182.605 91.898C182.605 89.1551 181.222 87.7836 178.456 87.7836C175.691 87.7836 174.308 89.1551 174.308 91.898C174.308 94.641 175.691 96.0125 178.456 96.0125Z" fill="#1488CC" fill-opacity="0.2"/>
<path d="M197.815 96.0125C200.581 96.0125 201.964 94.641 201.964 91.898C201.964 89.1551 200.581 87.7836 197.815 87.7836C195.05 87.7836 193.667 89.1551 193.667 91.898C195.05 93.2695 196.433 96.0125 197.815 96.0125Z" fill="#1488CC" fill-opacity="0.2"/>
<path d="M218.558 97.3839C221.323 97.3839 224.089 94.6409 224.089 91.898C224.089 89.155 221.323 86.412 218.558 86.412C215.792 86.412 213.026 89.155 213.026 91.898C213.026 94.6409 215.792 97.3839 218.558 97.3839Z" fill="#1488CC" fill-opacity="0.2"/>
<path d="M237.917 96.0125C240.683 96.0125 242.065 93.2695 242.065 91.898C242.065 89.1551 239.3 87.7836 237.917 87.7836C235.151 87.7836 233.769 90.5266 233.769 91.898C233.769 94.641 235.151 96.0125 237.917 96.0125Z" fill="#1488CC" fill-opacity="0.2"/>
<path d="M258.659 97.3839C261.425 97.3839 264.19 94.6409 264.19 91.898C264.19 89.155 261.425 86.412 258.659 86.412C255.893 86.412 253.128 89.155 253.128 91.898C253.128 94.6409 254.511 97.3839 258.659 97.3839Z" fill="#1488CC" fill-opacity="0.2"/>
<path d="M278.018 98.7554C282.167 98.7554 284.932 96.0125 284.932 91.898C284.932 87.7836 282.167 85.0406 278.018 85.0406C273.87 85.0406 271.104 87.7836 271.104 91.898C271.104 96.0125 273.87 98.7554 278.018 98.7554Z" fill="#1488CC" fill-opacity="0.2"/>
<path d="M297.378 98.7554C301.526 98.7554 304.292 96.0125 304.292 91.898C304.292 87.7836 301.526 85.0406 297.378 85.0406C293.229 85.0406 290.464 87.7836 290.464 91.898C291.846 96.0125 294.612 98.7554 297.378 98.7554Z" fill="#1488CC" fill-opacity="0.2"/>
<path d="M318.12 93.2695C319.502 91.8981 318.12 91.8981 318.12 91.8981C316.737 90.5266 316.737 90.5266 318.12 93.2695C316.737 93.2695 316.737 91.8981 318.12 93.2695Z" fill="#1488CC" fill-opacity="0.2"/>
<path d="M59.5349 112.47C60.9177 111.099 59.5349 111.099 59.5349 111.099C58.1521 111.099 58.1521 111.099 59.5349 112.47C58.1521 112.47 58.1521 112.47 59.5349 112.47Z" fill="#1488CC" fill-opacity="0.2"/>
<path d="M78.894 117.956C83.0424 117.956 85.808 115.213 85.808 111.099C85.808 106.984 83.0424 104.241 78.894 104.241C74.7456 104.241 71.98 106.984 71.98 111.099C71.98 115.213 74.7456 117.956 78.894 117.956Z" fill="#1488CC" fill-opacity="0.2"/>
<path d="M98.2534 117.956C101.019 117.956 103.785 115.213 103.785 112.47C103.785 109.727 101.019 106.984 98.2534 106.984C95.4878 106.984 92.7221 109.727 92.7221 112.47C92.7221 115.213 95.4878 117.956 98.2534 117.956Z" fill="#1488CC" fill-opacity="0.2"/>
<path d="M118.995 116.585C121.761 116.585 124.527 113.842 124.527 111.099C124.527 108.356 121.761 105.613 118.995 105.613C116.23 105.613 113.464 108.356 113.464 111.099C113.464 113.842 116.23 116.585 118.995 116.585Z" fill="#1488CC" fill-opacity="0.2"/>
<path d="M138.355 116.585C141.12 116.585 143.886 113.842 143.886 111.099C143.886 108.356 141.12 105.613 138.355 105.613C135.589 105.613 132.824 108.356 132.824 111.099C132.824 113.842 135.589 116.585 138.355 116.585Z" fill="#1488CC" fill-opacity="0.2"/>
<path d="M159.097 117.956C163.245 117.956 166.011 115.213 166.011 111.099C166.011 106.984 163.245 104.241 159.097 104.241C154.948 104.241 152.183 106.984 152.183 111.099C152.183 115.213 154.948 117.956 159.097 117.956Z" fill="#1488CC" fill-opacity="0.2"/>
<path d="M178.456 116.585C181.222 116.585 183.987 113.842 183.987 111.099C183.987 108.356 181.222 106.984 178.456 106.984C175.691 106.984 172.925 109.727 172.925 112.47C172.925 115.213 175.691 116.585 178.456 116.585Z" fill="#1488CC" fill-opacity="0.2"/>
<path d="M197.815 115.213C200.581 115.213 201.964 113.842 201.964 111.099C201.964 108.356 200.581 106.984 197.815 106.984C195.05 106.984 193.667 108.356 193.667 111.099C193.667 113.842 196.433 115.213 197.815 115.213Z" fill="#1488CC" fill-opacity="0.2"/>
<path d="M218.558 116.585C221.323 116.585 224.089 113.842 224.089 111.099C224.089 108.356 221.323 106.984 218.558 106.984C215.792 106.984 213.026 109.727 213.026 112.47C213.026 115.213 215.792 116.585 218.558 116.585Z" fill="#1488CC" fill-opacity="0.2"/>
<path d="M237.917 116.585C240.972 116.585 243.448 114.129 243.448 111.099C243.448 108.069 240.972 105.613 237.917 105.613C234.862 105.613 232.386 108.069 232.386 111.099C232.386 114.129 234.862 116.585 237.917 116.585Z" fill="#1488CC" fill-opacity="0.2"/>
<path d="M258.659 117.956C262.807 117.956 265.573 115.213 265.573 111.099C265.573 106.984 262.807 104.241 258.659 104.241C254.511 104.241 251.745 106.984 251.745 111.099C251.745 115.213 254.511 117.956 258.659 117.956Z" fill="#1488CC" fill-opacity="0.2"/>
<path d="M278.018 117.956C281.837 117.956 284.932 114.886 284.932 111.099C284.932 107.312 281.837 104.241 278.018 104.241C274.2 104.241 271.104 107.312 271.104 111.099C271.104 114.886 274.2 117.956 278.018 117.956Z" fill="#1488CC" fill-opacity="0.2"/>
<path d="M297.378 117.956C300.143 117.956 302.909 115.213 302.909 112.47C302.909 109.727 300.143 106.984 297.378 106.984C294.612 106.984 291.846 109.727 291.846 112.47C291.846 115.213 294.612 117.956 297.378 117.956Z" fill="#1488CC" fill-opacity="0.2"/>
<path d="M318.12 116.585C320.885 116.585 323.651 113.842 323.651 111.099C323.651 108.356 320.885 105.613 318.12 105.613C315.354 105.613 312.589 108.356 312.589 111.099C312.589 113.842 315.354 116.585 318.12 116.585Z" fill="#1488CC" fill-opacity="0.2"/>
<path d="M337.479 116.585C340.534 116.585 343.01 114.129 343.01 111.099C343.01 108.069 340.534 105.613 337.479 105.613C334.424 105.613 331.948 108.069 331.948 111.099C331.948 114.129 334.424 116.585 337.479 116.585Z" fill="#1488CC" fill-opacity="0.2"/>
<path d="M59.5348 137.157C62.3004 137.157 65.0661 134.414 65.0661 131.671C65.0661 128.928 62.3004 126.185 59.5348 126.185C56.7692 126.185 54.0036 128.928 54.0036 131.671C52.6208 134.414 55.3864 137.157 59.5348 137.157Z" fill="#1488CC" fill-opacity="0.2"/>
<path d="M78.8941 131.671C80.2769 130.3 78.8941 130.3 78.8941 130.3C78.8941 130.3 78.8941 130.3 78.8941 131.671Z" fill="#1488CC" fill-opacity="0.2"/>
<path d="M98.2534 137.157C101.019 137.157 103.785 134.414 103.785 131.671C103.785 128.928 101.019 126.185 98.2534 126.185C95.4878 126.185 92.7221 128.928 92.7221 131.671C92.7221 134.414 95.4878 137.157 98.2534 137.157Z" fill="#1488CC" fill-opacity="0.2"/>
<path d="M118.995 137.157C121.761 137.157 124.527 134.414 124.527 131.671C124.527 128.928 121.761 126.185 118.995 126.185C116.23 126.185 113.464 128.928 113.464 131.671C113.464 134.414 116.23 137.157 118.995 137.157Z" fill="#1488CC" fill-opacity="0.2"/>
<path d="M138.355 138.528C142.503 138.528 145.269 135.785 145.269 131.671C145.269 127.557 142.503 124.814 138.355 124.814C134.206 124.814 131.441 127.557 131.441 131.671C131.441 134.414 134.206 138.528 138.355 138.528Z" fill="#1488CC" fill-opacity="0.2"/>
<path d="M159.097 137.157C161.863 137.157 164.628 134.414 164.628 131.671C164.628 128.928 161.863 126.185 159.097 126.185C156.331 126.185 153.566 128.928 153.566 131.671C153.566 134.414 154.949 137.157 159.097 137.157Z" fill="#1488CC" fill-opacity="0.2"/>
<path d="M178.456 135.785C181.222 135.785 182.605 134.414 182.605 131.671C182.605 128.928 181.222 127.556 178.456 127.556C175.691 127.556 174.308 128.928 174.308 131.671C174.308 133.042 175.691 135.785 178.456 135.785Z" fill="#1488CC" fill-opacity="0.2"/>
<path d="M197.815 135.785C200.581 135.785 201.964 133.042 201.964 131.671C201.964 128.928 199.198 127.556 197.815 127.556C195.05 127.556 193.667 130.299 193.667 131.671C193.667 134.414 196.433 135.785 197.815 135.785Z" fill="#1488CC" fill-opacity="0.2"/>
<path d="M218.558 134.414C219.94 134.414 221.323 133.042 221.323 131.671C221.323 130.3 219.94 128.928 218.558 128.928C217.175 128.928 215.792 130.3 215.792 131.671C215.792 133.042 217.175 134.414 218.558 134.414Z" fill="#1488CC" fill-opacity="0.2"/>
<path d="M237.917 133.042C239.3 133.042 240.682 131.671 240.682 130.299C240.682 128.928 239.3 127.556 237.917 127.556C236.534 127.556 235.151 128.928 235.151 130.299C236.534 133.042 236.534 133.042 237.917 133.042Z" fill="#1488CC" fill-opacity="0.2"/>
<path d="M258.659 137.157C262.807 137.157 265.573 134.414 265.573 130.3C265.573 126.185 262.807 123.442 258.659 123.442C254.511 123.442 251.745 126.185 251.745 130.3C251.745 134.414 254.511 137.157 258.659 137.157Z" fill="#1488CC" fill-opacity="0.2"/>
<path d="M278.018 135.785C280.784 135.785 282.167 134.414 282.167 131.671C282.167 128.928 280.784 127.556 278.018 127.556C275.253 127.556 273.87 128.928 273.87 131.671C273.87 133.042 275.253 135.785 278.018 135.785Z" fill="#1488CC" fill-opacity="0.2"/>
<path d="M297.378 138.528C301.526 138.528 304.292 135.785 304.292 131.671C304.292 127.557 301.526 124.814 297.378 124.814C293.229 124.814 290.464 127.557 290.464 131.671C291.846 134.414 294.612 138.528 297.378 138.528Z" fill="#1488CC" fill-opacity="0.2"/>
<path d="M318.12 131.671C319.502 130.3 318.12 130.3 318.12 130.3C318.12 130.3 316.737 130.3 318.12 131.671Z" fill="#1488CC" fill-opacity="0.2"/>
<path d="M59.5349 152.243C60.9177 152.243 60.9177 150.872 60.9177 150.872C60.9177 149.5 59.5349 149.5 59.5349 149.5C58.1521 149.5 58.1521 150.872 58.1521 150.872C56.7693 152.243 58.1521 152.243 59.5349 152.243Z" fill="#1488CC" fill-opacity="0.2"/>
<path d="M78.8942 152.243C80.277 152.243 80.277 152.243 80.277 150.872C80.277 149.5 78.8942 149.5 78.8942 149.5C77.5114 149.5 77.5114 150.872 77.5114 150.872C77.5114 152.243 77.5114 152.243 78.8942 152.243Z" fill="#1488CC" fill-opacity="0.2"/>
<path d="M98.2535 153.615C99.6363 153.615 101.019 152.243 101.019 150.872C101.019 149.5 99.6363 148.129 98.2535 148.129C96.8707 148.129 95.4879 149.5 95.4879 150.872C96.8707 152.243 98.2535 153.615 98.2535 153.615Z" fill="#1488CC" fill-opacity="0.2"/>
<path d="M118.996 157.729C123.144 157.729 125.91 154.986 125.91 150.872C125.91 146.757 123.144 144.014 118.996 144.014C114.847 144.014 112.082 146.757 112.082 150.872C112.082 154.986 114.847 157.729 118.996 157.729Z" fill="#1488CC" fill-opacity="0.2"/>
<path d="M138.355 157.729C142.503 157.729 145.269 154.986 145.269 150.872C145.269 146.757 142.503 144.014 138.355 144.014C134.206 144.014 131.441 146.757 131.441 150.872C132.824 154.986 135.589 157.729 138.355 157.729Z" fill="#1488CC" fill-opacity="0.2"/>
<path d="M159.097 156.358C162.152 156.358 164.628 153.902 164.628 150.872C164.628 147.842 162.152 145.386 159.097 145.386C156.042 145.386 153.566 147.842 153.566 150.872C153.566 153.902 156.042 156.358 159.097 156.358Z" fill="#1488CC" fill-opacity="0.2"/>
<path d="M178.456 156.358C181.222 156.358 183.987 153.615 183.987 150.872C183.987 148.129 181.222 145.386 178.456 145.386C175.691 145.386 172.925 148.129 172.925 150.872C172.925 153.615 175.691 156.358 178.456 156.358Z" fill="#1488CC" fill-opacity="0.2"/>
<path d="M197.815 154.986C200.581 154.986 201.964 153.615 201.964 150.872C201.964 148.129 200.581 146.757 197.815 146.757C195.05 146.757 193.667 148.129 193.667 150.872C193.667 153.615 196.433 154.986 197.815 154.986Z" fill="#1488CC" fill-opacity="0.2"/>
<path d="M218.558 153.615C219.94 153.615 221.323 152.243 221.323 150.872C221.323 149.5 219.94 148.129 218.558 148.129C217.175 148.129 215.792 149.5 215.792 150.872C215.792 152.243 217.175 153.615 218.558 153.615Z" fill="#1488CC" fill-opacity="0.2"/>
<path d="M237.917 154.986C240.683 154.986 242.065 152.243 242.065 150.872C242.065 149.5 239.3 146.757 237.917 146.757C236.534 146.757 233.769 149.5 233.769 150.872C233.769 152.243 235.151 154.986 237.917 154.986Z" fill="#1488CC" fill-opacity="0.2"/>
<path d="M258.659 156.358C261.425 156.358 264.19 153.615 264.19 150.872C264.19 148.129 261.425 145.386 258.659 145.386C255.893 145.386 253.128 148.129 253.128 150.872C253.128 153.615 255.893 156.358 258.659 156.358Z" fill="#1488CC" fill-opacity="0.2"/>
<path d="M278.018 156.358C280.784 156.358 283.549 153.615 283.549 150.872C283.549 148.129 280.784 145.386 278.018 145.386C275.253 145.386 272.487 148.129 272.487 150.872C272.487 153.615 275.253 156.358 278.018 156.358Z" fill="#1488CC" fill-opacity="0.2"/>
<path d="M297.378 152.243C298.76 150.872 298.76 152.243 297.378 152.243C298.76 150.872 297.378 150.872 297.378 150.872C297.378 150.872 297.378 150.872 297.378 152.243Z" fill="#1488CC" fill-opacity="0.2"/>
<path d="M318.12 156.358C321.175 156.358 323.651 153.902 323.651 150.872C323.651 147.842 321.175 145.386 318.12 145.386C315.065 145.386 312.589 147.842 312.589 150.872C312.589 153.902 315.065 156.358 318.12 156.358Z" fill="#1488CC" fill-opacity="0.2"/>
<path d="M98.2535 171.444C99.6363 171.444 99.6363 171.444 98.2535 171.444C99.6363 170.072 98.2535 170.072 98.2535 170.072C98.2535 170.072 98.2535 170.072 98.2535 171.444Z" fill="#1488CC" fill-opacity="0.2"/>
<path d="M118.996 176.93C123.144 176.93 125.91 174.187 125.91 170.072C125.91 165.958 123.144 163.215 118.996 163.215C114.847 163.215 112.082 165.958 112.082 170.072C112.082 174.187 114.847 176.93 118.996 176.93Z" fill="#1488CC" fill-opacity="0.2"/>
<path d="M138.355 176.93C141.12 176.93 143.886 174.187 143.886 171.444C143.886 168.701 141.12 165.958 138.355 165.958C135.589 165.958 132.824 168.701 132.824 171.444C132.824 174.187 135.589 176.93 138.355 176.93Z" fill="#1488CC" fill-opacity="0.2"/>
<path d="M159.097 175.558C161.863 175.558 164.628 172.815 164.628 170.072C164.628 167.329 161.863 164.587 159.097 164.587C156.331 164.587 153.566 167.329 153.566 170.072C153.566 174.187 156.331 175.558 159.097 175.558Z" fill="#1488CC" fill-opacity="0.2"/>
<path d="M178.456 172.815C179.839 172.815 179.839 172.815 179.839 171.444C179.839 170.072 179.839 170.072 178.456 170.072C177.073 170.072 177.073 170.072 177.073 171.444L178.456 172.815Z" fill="#1488CC" fill-opacity="0.2"/>
<path d="M197.815 174.187C200.581 174.187 201.964 172.815 201.964 170.072C201.964 167.329 200.581 165.958 197.815 165.958C195.05 165.958 193.667 167.329 193.667 170.072C195.05 172.815 196.433 174.187 197.815 174.187Z" fill="#1488CC" fill-opacity="0.2"/>
<path d="M218.558 172.815C219.94 172.815 221.323 171.444 221.323 170.072C221.323 168.701 219.94 167.329 218.558 167.329C217.175 167.329 215.792 168.701 215.792 170.072C215.792 171.444 217.175 172.815 218.558 172.815Z" fill="#1488CC" fill-opacity="0.2"/>
<path d="M237.917 175.558C240.683 175.558 242.065 174.187 242.065 171.444C242.065 168.701 240.683 167.329 237.917 167.329C235.151 167.329 233.769 168.701 233.769 171.444C233.769 172.815 235.151 175.558 237.917 175.558Z" fill="#1488CC" fill-opacity="0.2"/>
<path d="M258.659 171.444C260.042 170.072 260.042 168.701 258.659 168.701C257.276 170.072 257.276 170.072 258.659 171.444C257.276 171.444 257.276 171.444 258.659 171.444Z" fill="#1488CC" fill-opacity="0.2"/>
<path d="M278.018 174.187C280.784 174.187 282.167 172.815 282.167 170.072C282.167 167.329 280.784 165.958 278.018 165.958C275.253 165.958 273.87 167.329 273.87 170.072C273.87 172.815 275.253 174.187 278.018 174.187Z" fill="#1488CC" fill-opacity="0.2"/>
<path d="M297.377 174.187C300.143 174.187 301.526 172.815 301.526 170.072C301.526 167.329 300.143 165.958 297.377 165.958C294.612 165.958 293.229 167.329 293.229 170.072C294.612 172.815 295.995 174.187 297.377 174.187Z" fill="#1488CC" fill-opacity="0.2"/>
<path d="M98.2534 192.016C99.6362 192.016 99.6362 190.645 99.6362 190.645C101.019 189.273 99.6362 189.273 98.2534 189.273C96.8706 189.273 96.8706 190.645 96.8706 190.645C96.8706 192.016 98.2534 192.016 98.2534 192.016Z" fill="#1488CC" fill-opacity="0.2"/>
<path d="M118.996 192.016C120.378 190.645 118.996 189.273 118.996 189.273C117.613 189.273 117.613 189.273 118.996 192.016C117.613 192.016 117.613 190.645 118.996 192.016Z" fill="#1488CC" fill-opacity="0.2"/>
<path d="M138.355 194.759C141.12 194.759 142.503 193.388 142.503 190.645C142.503 187.902 141.12 186.53 138.355 186.53C135.589 186.53 134.206 187.902 134.206 190.645C134.206 192.016 136.972 194.759 138.355 194.759Z" fill="#1488CC" fill-opacity="0.2"/>
<path d="M159.097 197.502C162.915 197.502 166.011 194.432 166.011 190.645C166.011 186.857 162.915 183.787 159.097 183.787C155.278 183.787 152.183 186.857 152.183 190.645C152.183 194.432 155.278 197.502 159.097 197.502Z" fill="#1488CC" fill-opacity="0.2"/>
<path d="M178.456 193.388C179.984 193.388 181.222 192.16 181.222 190.645C181.222 189.13 179.984 187.902 178.456 187.902C176.929 187.902 175.691 189.13 175.691 190.645C175.691 192.16 176.929 193.388 178.456 193.388Z" fill="#1488CC" fill-opacity="0.2"/>
<path d="M197.815 192.016C198.579 192.016 199.198 191.402 199.198 190.645C199.198 189.887 198.579 189.273 197.815 189.273C197.052 189.273 196.433 189.887 196.433 190.645C196.433 191.402 197.052 192.016 197.815 192.016Z" fill="#1488CC" fill-opacity="0.2"/>
<path d="M218.558 196.131C221.323 196.131 224.089 193.388 224.089 190.645C224.089 187.902 221.323 185.159 218.558 185.159C215.792 185.159 213.026 187.902 213.026 190.645C213.026 193.388 215.792 196.131 218.558 196.131Z" fill="#1488CC" fill-opacity="0.2"/>
<path d="M237.917 193.388C239.3 193.388 240.682 192.016 240.682 190.645C240.682 189.273 239.3 187.902 237.917 187.902C236.534 187.902 235.151 189.273 235.151 190.645C235.151 192.016 236.534 193.388 237.917 193.388Z" fill="#1488CC" fill-opacity="0.2"/>
<path d="M258.659 193.388C260.042 193.388 261.425 192.016 261.425 190.645C261.425 189.273 260.042 187.902 258.659 187.902C257.276 187.902 255.893 189.273 255.893 190.645C254.511 192.016 255.893 193.388 258.659 193.388Z" fill="#1488CC" fill-opacity="0.2"/>
<path d="M278.018 193.388C279.401 193.388 280.784 192.016 280.784 190.645C280.784 189.273 279.401 187.902 278.018 187.902C276.635 187.902 275.253 189.273 275.253 190.645C275.253 192.016 276.635 193.388 278.018 193.388Z" fill="#1488CC" fill-opacity="0.2"/>
<path d="M297.378 196.131C300.432 196.131 302.909 193.674 302.909 190.645C302.909 187.615 300.432 185.159 297.378 185.159C294.323 185.159 291.846 187.615 291.846 190.645C291.846 193.674 294.323 196.131 297.378 196.131Z" fill="#1488CC" fill-opacity="0.2"/>
<path d="M138.355 211.217C139.738 211.217 139.738 211.217 138.355 211.217C139.738 209.845 138.355 209.845 138.355 209.845C138.355 209.845 138.355 209.845 138.355 211.217Z" fill="#1488CC" fill-opacity="0.2"/>
<path d="M159.097 212.588C160.48 212.588 161.863 211.217 161.863 209.845C161.863 208.474 160.48 207.102 159.097 207.102C157.714 207.102 156.331 208.474 156.331 209.845C156.331 211.217 157.714 212.588 159.097 212.588Z" fill="#1488CC" fill-opacity="0.2"/>
<path d="M178.456 216.703C182.605 216.703 185.37 213.96 185.37 209.845C185.37 205.731 182.605 202.988 178.456 202.988C174.308 202.988 171.542 205.731 171.542 209.845C171.542 213.96 174.308 216.703 178.456 216.703Z" fill="#1488CC" fill-opacity="0.2"/>
<path d="M197.815 216.703C201.964 216.703 204.73 213.96 204.73 209.845C204.73 205.731 201.964 202.988 197.815 202.988C193.667 202.988 190.901 205.731 190.901 209.845C192.284 213.96 195.05 216.703 197.815 216.703Z" fill="#1488CC" fill-opacity="0.2"/>
<path d="M218.558 212.588C219.94 212.588 221.323 211.217 221.323 209.845C221.323 208.474 219.94 207.102 218.558 207.102C217.175 207.102 215.792 208.474 215.792 209.845C215.792 211.217 217.175 212.588 218.558 212.588Z" fill="#1488CC" fill-opacity="0.2"/>
<path d="M237.917 212.588C239.3 212.588 239.3 211.217 239.3 211.217C239.3 209.845 237.917 209.845 237.917 209.845C236.534 209.845 236.534 211.217 236.534 211.217L237.917 212.588Z" fill="#1488CC" fill-opacity="0.2"/>
<path d="M258.659 212.588C260.042 212.588 260.042 211.217 260.042 211.217C260.042 209.845 258.659 209.845 258.659 209.845C257.276 209.845 257.276 211.217 257.276 211.217C255.893 211.217 257.276 212.588 258.659 212.588Z" fill="#1488CC" fill-opacity="0.2"/>
<path d="M278.018 213.96C280.784 213.96 282.167 212.588 282.167 209.845C282.167 207.102 280.784 205.731 278.018 205.731C275.253 205.731 273.87 207.102 273.87 209.845C273.87 212.588 275.253 213.96 278.018 213.96Z" fill="#1488CC" fill-opacity="0.2"/>
<path d="M159.097 230.418C157.714 230.418 159.097 229.046 159.097 230.418V230.418Z" fill="#1488CC" fill-opacity="0.2"/>
<path d="M237.917 231.789C239.3 231.789 240.682 230.418 240.682 229.046C240.682 227.675 239.3 226.303 237.917 226.303C236.534 226.303 235.151 227.675 235.151 229.046C235.151 231.789 236.534 231.789 237.917 231.789Z" fill="#1488CC" fill-opacity="0.2"/>
<path d="M258.659 230.418C257.276 230.418 258.659 229.046 258.659 230.418V230.418Z" fill="#1488CC" fill-opacity="0.2"/>
<path d="M278.018 230.418C279.401 229.046 278.018 229.046 278.018 229.046C278.018 229.046 278.018 229.046 278.018 230.418Z" fill="#1488CC" fill-opacity="0.2"/>
</svg>
